<mxfile host="app.diagrams.net" modified="2023-02-23T11:07:22.369Z" agent="5.0 (Macintosh; Intel Mac OS X 10_15_7) AppleWebKit/605.1.15 (KHTML, like Gecko) Version/15.1 Safari/605.1.15" etag="SaDivLLmcjSpUuYEghxV" version="20.8.22" type="github">
  <diagram id="Udj0moHvdJkmtZv1i4Dm" name="第 1 页">
    <mxGraphModel dx="2874" dy="2820" grid="1" gridSize="10" guides="1" tooltips="1" connect="1" arrows="1" fold="1" page="1" pageScale="1" pageWidth="1920" pageHeight="1200" background="#FFFFFF" math="0" shadow="0">
      <root>
        <mxCell id="0" />
        <mxCell id="1" parent="0" />
        <mxCell id="WRViUmnpg-N0fgN5oUnf-31" value="" style="rounded=0;whiteSpace=wrap;html=1;fontSize=19;" parent="1" vertex="1">
          <mxGeometry x="800" y="-610" width="1000" height="360" as="geometry" />
        </mxCell>
        <mxCell id="WRViUmnpg-N0fgN5oUnf-19" value="" style="rounded=1;whiteSpace=wrap;html=1;fontSize=19;fillColor=#dae8fc;strokeColor=#6c8ebf;" parent="1" vertex="1">
          <mxGeometry x="800" y="610" width="700" height="90" as="geometry" />
        </mxCell>
        <mxCell id="WRViUmnpg-N0fgN5oUnf-56" style="edgeStyle=orthogonalEdgeStyle;rounded=0;orthogonalLoop=1;jettySize=auto;html=1;fontSize=20;shape=flexArrow;startArrow=block;" parent="1" source="WRViUmnpg-N0fgN5oUnf-20" target="WRViUmnpg-N0fgN5oUnf-46" edge="1">
          <mxGeometry relative="1" as="geometry">
            <Array as="points">
              <mxPoint x="1260" y="-65" />
            </Array>
          </mxGeometry>
        </mxCell>
        <mxCell id="WRViUmnpg-N0fgN5oUnf-102" value="&lt;font style=&quot;font-size: 13px;&quot;&gt;Internet&lt;/font&gt;" style="edgeLabel;html=1;align=center;verticalAlign=middle;resizable=0;points=[];fontSize=11;" parent="WRViUmnpg-N0fgN5oUnf-56" vertex="1" connectable="0">
          <mxGeometry x="-0.0374" y="1" relative="1" as="geometry">
            <mxPoint as="offset" />
          </mxGeometry>
        </mxCell>
        <mxCell id="WRViUmnpg-N0fgN5oUnf-20" value="" style="rounded=0;whiteSpace=wrap;html=1;fontSize=19;" parent="1" vertex="1">
          <mxGeometry x="790" y="230" width="1010" height="360" as="geometry" />
        </mxCell>
        <mxCell id="WRViUmnpg-N0fgN5oUnf-53" style="edgeStyle=orthogonalEdgeStyle;rounded=0;orthogonalLoop=1;jettySize=auto;html=1;entryX=0;entryY=0.7;entryDx=0;entryDy=0;entryPerimeter=0;fontSize=20;shape=flexArrow;startArrow=block;" parent="1" source="WRViUmnpg-N0fgN5oUnf-17" target="WRViUmnpg-N0fgN5oUnf-45" edge="1">
          <mxGeometry relative="1" as="geometry">
            <Array as="points">
              <mxPoint x="400" y="-50" />
              <mxPoint x="400" y="-50" />
            </Array>
          </mxGeometry>
        </mxCell>
        <mxCell id="WRViUmnpg-N0fgN5oUnf-103" value="Internet" style="edgeLabel;html=1;align=center;verticalAlign=middle;resizable=0;points=[];fontSize=11;" parent="WRViUmnpg-N0fgN5oUnf-53" vertex="1" connectable="0">
          <mxGeometry x="-0.6121" y="-1" relative="1" as="geometry">
            <mxPoint x="47" as="offset" />
          </mxGeometry>
        </mxCell>
        <mxCell id="WRViUmnpg-N0fgN5oUnf-17" value="" style="rounded=0;whiteSpace=wrap;html=1;fontSize=19;" parent="1" vertex="1">
          <mxGeometry x="40" y="-340" width="370" height="740" as="geometry" />
        </mxCell>
        <mxCell id="WRViUmnpg-N0fgN5oUnf-1" value="&lt;font style=&quot;font-size: 13px;&quot;&gt;Exchange 服务器&lt;/font&gt;" style="sketch=0;pointerEvents=1;shadow=0;dashed=0;html=1;strokeColor=none;fillColor=#505050;labelPosition=center;verticalLabelPosition=bottom;verticalAlign=top;outlineConnect=0;align=center;shape=mxgraph.office.servers.exchange_mailbox_server;" parent="1" vertex="1">
          <mxGeometry x="90" y="170" width="90" height="100" as="geometry" />
        </mxCell>
        <mxCell id="WRViUmnpg-N0fgN5oUnf-121" style="edgeStyle=orthogonalEdgeStyle;rounded=0;orthogonalLoop=1;jettySize=auto;html=1;entryX=0.07;entryY=0.93;entryDx=0;entryDy=0;entryPerimeter=0;strokeColor=#9673a6;strokeWidth=4;fontSize=20;fillColor=#e1d5e7;startArrow=classic;startFill=1;" parent="1" source="WRViUmnpg-N0fgN5oUnf-4" target="WRViUmnpg-N0fgN5oUnf-45" edge="1">
          <mxGeometry relative="1" as="geometry" />
        </mxCell>
        <mxCell id="WRViUmnpg-N0fgN5oUnf-122" value="Exchange混合部署" style="edgeLabel;html=1;align=center;verticalAlign=middle;resizable=0;points=[];fontSize=20;" parent="WRViUmnpg-N0fgN5oUnf-121" vertex="1" connectable="0">
          <mxGeometry x="-0.3089" relative="1" as="geometry">
            <mxPoint as="offset" />
          </mxGeometry>
        </mxCell>
        <mxCell id="WRViUmnpg-N0fgN5oUnf-4" value="&lt;font style=&quot;font-size: 13px;&quot;&gt;Exchange服务器&lt;/font&gt;" style="sketch=0;pointerEvents=1;shadow=0;dashed=0;html=1;strokeColor=none;fillColor=#505050;labelPosition=center;verticalLabelPosition=bottom;verticalAlign=top;outlineConnect=0;align=center;shape=mxgraph.office.servers.exchange_mailbox_server;" parent="1" vertex="1">
          <mxGeometry x="230" y="170" width="90" height="100" as="geometry" />
        </mxCell>
        <mxCell id="WRViUmnpg-N0fgN5oUnf-80" style="edgeStyle=orthogonalEdgeStyle;rounded=0;orthogonalLoop=1;jettySize=auto;html=1;exitX=0.5;exitY=0;exitDx=0;exitDy=0;exitPerimeter=0;strokeColor=#009900;fontSize=11;strokeWidth=3;" parent="1" source="WRViUmnpg-N0fgN5oUnf-5" target="WRViUmnpg-N0fgN5oUnf-46" edge="1">
          <mxGeometry relative="1" as="geometry">
            <mxPoint x="1410" y="50" as="targetPoint" />
          </mxGeometry>
        </mxCell>
        <mxCell id="WRViUmnpg-N0fgN5oUnf-96" value="&lt;font style=&quot;font-size: 20px;&quot;&gt;组织内&lt;br&gt;出站邮件&lt;/font&gt;" style="edgeLabel;html=1;align=center;verticalAlign=middle;resizable=0;points=[];fontSize=11;" parent="WRViUmnpg-N0fgN5oUnf-80" vertex="1" connectable="0">
          <mxGeometry x="0.2598" y="1" relative="1" as="geometry">
            <mxPoint as="offset" />
          </mxGeometry>
        </mxCell>
        <mxCell id="WRViUmnpg-N0fgN5oUnf-5" value="&lt;font style=&quot;font-size: 19px;&quot;&gt;出站&lt;br&gt;连接器&lt;br&gt;&lt;/font&gt;" style="sketch=0;pointerEvents=1;shadow=0;dashed=0;html=1;strokeColor=none;labelPosition=center;verticalLabelPosition=bottom;verticalAlign=top;align=center;fillColor=#505050;shape=mxgraph.mscae.intune.exchange_connector" parent="1" vertex="1">
          <mxGeometry x="1415" y="388.5" width="70" height="55" as="geometry" />
        </mxCell>
        <mxCell id="WRViUmnpg-N0fgN5oUnf-91" style="edgeStyle=orthogonalEdgeStyle;rounded=0;orthogonalLoop=1;jettySize=auto;html=1;entryX=0.19;entryY=0.5;entryDx=0;entryDy=0;entryPerimeter=0;strokeColor=#009900;strokeWidth=3;fontSize=11;" parent="1" source="WRViUmnpg-N0fgN5oUnf-6" target="WRViUmnpg-N0fgN5oUnf-5" edge="1">
          <mxGeometry relative="1" as="geometry" />
        </mxCell>
        <mxCell id="WRViUmnpg-N0fgN5oUnf-8" value="Azure AD" style="aspect=fixed;html=1;points=[];align=center;image;fontSize=12;image=img/lib/azure2/identity/Azure_AD_B2C.svg;" parent="1" vertex="1">
          <mxGeometry x="890.0000000000001" y="371" width="105.66" height="98" as="geometry" />
        </mxCell>
        <mxCell id="WRViUmnpg-N0fgN5oUnf-25" style="edgeStyle=orthogonalEdgeStyle;rounded=0;orthogonalLoop=0;jettySize=auto;html=1;fontSize=19;" parent="1" source="WRViUmnpg-N0fgN5oUnf-9" target="WRViUmnpg-N0fgN5oUnf-119" edge="1">
          <mxGeometry relative="1" as="geometry">
            <mxPoint x="160.03999999999996" y="-161" as="targetPoint" />
          </mxGeometry>
        </mxCell>
        <mxCell id="WRViUmnpg-N0fgN5oUnf-69" style="edgeStyle=orthogonalEdgeStyle;rounded=0;orthogonalLoop=1;jettySize=auto;html=1;fontSize=20;" parent="1" source="WRViUmnpg-N0fgN5oUnf-9" target="WRViUmnpg-N0fgN5oUnf-68" edge="1">
          <mxGeometry relative="1" as="geometry" />
        </mxCell>
        <mxCell id="WRViUmnpg-N0fgN5oUnf-9" value="&lt;font style=&quot;font-size: 20px;&quot;&gt;AD控制器&lt;/font&gt;" style="sketch=0;pointerEvents=1;shadow=0;dashed=0;html=1;strokeColor=none;fillColor=#505050;labelPosition=center;verticalLabelPosition=bottom;verticalAlign=top;outlineConnect=0;align=center;shape=mxgraph.office.servers.active_directory_federation_services_server_blue;" parent="1" vertex="1">
          <mxGeometry x="140" y="-10" width="110" height="115" as="geometry" />
        </mxCell>
        <mxCell id="WRViUmnpg-N0fgN5oUnf-18" value="AWS云" style="rounded=1;whiteSpace=wrap;html=1;fontSize=19;fillColor=#dae8fc;strokeColor=#6c8ebf;" parent="1" vertex="1">
          <mxGeometry x="50" y="-420" width="360" height="60" as="geometry" />
        </mxCell>
        <mxCell id="WRViUmnpg-N0fgN5oUnf-92" style="edgeStyle=orthogonalEdgeStyle;rounded=0;orthogonalLoop=1;jettySize=auto;html=1;entryX=0.38;entryY=0.02;entryDx=0;entryDy=0;entryPerimeter=0;strokeColor=#d6b656;strokeWidth=4;fontSize=11;fillColor=#fff2cc;" parent="1" source="WRViUmnpg-N0fgN5oUnf-119" target="WRViUmnpg-N0fgN5oUnf-45" edge="1">
          <mxGeometry relative="1" as="geometry">
            <mxPoint x="160.03999999999996" y="-241" as="sourcePoint" />
            <Array as="points">
              <mxPoint x="160" y="-240" />
              <mxPoint x="160" y="-270" />
              <mxPoint x="587" y="-270" />
            </Array>
          </mxGeometry>
        </mxCell>
        <mxCell id="WRViUmnpg-N0fgN5oUnf-106" value="&lt;font style=&quot;font-size: 20px;&quot;&gt;微软组织架构同步&lt;/font&gt;" style="edgeLabel;html=1;align=center;verticalAlign=middle;resizable=0;points=[];fontSize=11;" parent="WRViUmnpg-N0fgN5oUnf-92" vertex="1" connectable="0">
          <mxGeometry x="-0.079" y="1" relative="1" as="geometry">
            <mxPoint as="offset" />
          </mxGeometry>
        </mxCell>
        <mxCell id="WRViUmnpg-N0fgN5oUnf-22" value="" style="sketch=0;pointerEvents=1;shadow=0;dashed=0;html=1;strokeColor=none;fillColor=#505050;labelPosition=center;verticalLabelPosition=bottom;verticalAlign=top;outlineConnect=0;align=center;shape=mxgraph.office.communications.exchange_active_sync;fillColor=#2072B8;fontSize=19;" parent="1" vertex="1">
          <mxGeometry x="120" y="-186" width="30" height="31" as="geometry" />
        </mxCell>
        <mxCell id="WRViUmnpg-N0fgN5oUnf-28" value="" style="verticalLabelPosition=bottom;html=1;verticalAlign=top;align=center;strokeColor=none;fillColor=#00BEF2;shape=mxgraph.azure.enterprise;pointerEvents=1;fontSize=19;" parent="1" vertex="1">
          <mxGeometry x="90" y="-450" width="50" height="85" as="geometry" />
        </mxCell>
        <mxCell id="WRViUmnpg-N0fgN5oUnf-30" value="" style="rounded=1;whiteSpace=wrap;html=1;fontSize=19;fillColor=#dae8fc;strokeColor=#6c8ebf;" parent="1" vertex="1">
          <mxGeometry x="800" y="-710" width="720" height="90" as="geometry" />
        </mxCell>
        <mxCell id="WRViUmnpg-N0fgN5oUnf-85" style="edgeStyle=orthogonalEdgeStyle;rounded=0;orthogonalLoop=1;jettySize=auto;html=1;strokeColor=#0000CC;strokeWidth=3;fontSize=11;" parent="1" edge="1">
          <mxGeometry relative="1" as="geometry">
            <mxPoint x="1460" y="-82" as="targetPoint" />
            <Array as="points">
              <mxPoint x="1640" y="-469.5" />
              <mxPoint x="1640" y="-82.5" />
            </Array>
            <mxPoint x="1599.96" y="-470" as="sourcePoint" />
          </mxGeometry>
        </mxCell>
        <mxCell id="V7OJoDuZXHhJWIfkgba_-6" value="&lt;font style=&quot;font-size: 16px;&quot;&gt;组织内&lt;br&gt;入站邮件&lt;/font&gt;" style="edgeLabel;html=1;align=center;verticalAlign=middle;resizable=0;points=[];fontSize=25;" vertex="1" connectable="0" parent="WRViUmnpg-N0fgN5oUnf-85">
          <mxGeometry x="0.1665" relative="1" as="geometry">
            <mxPoint as="offset" />
          </mxGeometry>
        </mxCell>
        <mxCell id="WRViUmnpg-N0fgN5oUnf-55" style="edgeStyle=orthogonalEdgeStyle;rounded=0;orthogonalLoop=1;jettySize=auto;html=1;exitX=0.93;exitY=0.93;exitDx=0;exitDy=0;exitPerimeter=0;entryX=0;entryY=0.5;entryDx=0;entryDy=0;fontSize=20;shape=flexArrow;startArrow=block;" parent="1" source="WRViUmnpg-N0fgN5oUnf-45" target="WRViUmnpg-N0fgN5oUnf-20" edge="1">
          <mxGeometry relative="1" as="geometry" />
        </mxCell>
        <mxCell id="WRViUmnpg-N0fgN5oUnf-104" value="&lt;font style=&quot;font-size: 14px;&quot;&gt;Internet&lt;/font&gt;" style="edgeLabel;html=1;align=center;verticalAlign=middle;resizable=0;points=[];fontSize=11;" parent="WRViUmnpg-N0fgN5oUnf-55" vertex="1" connectable="0">
          <mxGeometry x="-0.1146" relative="1" as="geometry">
            <mxPoint y="-48" as="offset" />
          </mxGeometry>
        </mxCell>
        <mxCell id="WRViUmnpg-N0fgN5oUnf-93" style="edgeStyle=orthogonalEdgeStyle;rounded=0;orthogonalLoop=1;jettySize=auto;html=1;exitX=0.5;exitY=1;exitDx=0;exitDy=0;exitPerimeter=0;strokeColor=#d6b656;strokeWidth=4;fontSize=11;fillColor=#fff2cc;" parent="1" source="WRViUmnpg-N0fgN5oUnf-45" target="WRViUmnpg-N0fgN5oUnf-8" edge="1">
          <mxGeometry relative="1" as="geometry">
            <Array as="points">
              <mxPoint x="640" y="-20" />
              <mxPoint x="640" y="440" />
            </Array>
          </mxGeometry>
        </mxCell>
        <mxCell id="WRViUmnpg-N0fgN5oUnf-107" value="&lt;font style=&quot;font-size: 20px;&quot;&gt;微软组织架构同步&lt;/font&gt;" style="edgeLabel;html=1;align=center;verticalAlign=middle;resizable=0;points=[];fontSize=11;" parent="WRViUmnpg-N0fgN5oUnf-93" vertex="1" connectable="0">
          <mxGeometry x="-0.4277" y="-1" relative="1" as="geometry">
            <mxPoint x="11" y="132" as="offset" />
          </mxGeometry>
        </mxCell>
        <mxCell id="WRViUmnpg-N0fgN5oUnf-123" style="edgeStyle=orthogonalEdgeStyle;rounded=0;orthogonalLoop=1;jettySize=auto;html=1;strokeColor=#9673a6;strokeWidth=4;fontSize=20;fillColor=#e1d5e7;startArrow=classic;startFill=1;" parent="1" source="WRViUmnpg-N0fgN5oUnf-45" target="WRViUmnpg-N0fgN5oUnf-6" edge="1">
          <mxGeometry relative="1" as="geometry">
            <Array as="points">
              <mxPoint x="560" y="520" />
              <mxPoint x="1110" y="520" />
            </Array>
          </mxGeometry>
        </mxCell>
        <mxCell id="WRViUmnpg-N0fgN5oUnf-124" value="Exchange混合部署" style="edgeLabel;html=1;align=center;verticalAlign=middle;resizable=0;points=[];fontSize=20;" parent="WRViUmnpg-N0fgN5oUnf-123" vertex="1" connectable="0">
          <mxGeometry x="0.1874" relative="1" as="geometry">
            <mxPoint as="offset" />
          </mxGeometry>
        </mxCell>
        <mxCell id="WRViUmnpg-N0fgN5oUnf-45" value="Internet" style="outlineConnect=0;dashed=0;verticalLabelPosition=bottom;verticalAlign=top;align=center;html=1;shape=mxgraph.aws3.internet_3;fillColor=#D2D3D3;gradientColor=none;strokeColor=#4A4A4A;strokeWidth=8;fontSize=20;" parent="1" vertex="1">
          <mxGeometry x="530" y="-120" width="150" height="100" as="geometry" />
        </mxCell>
        <mxCell id="WRViUmnpg-N0fgN5oUnf-81" style="edgeStyle=orthogonalEdgeStyle;rounded=0;orthogonalLoop=1;jettySize=auto;html=1;exitX=0.77;exitY=0.25;exitDx=0;exitDy=0;exitPerimeter=0;strokeColor=#009900;fontSize=11;strokeWidth=3;" parent="1" source="WRViUmnpg-N0fgN5oUnf-46" target="V7OJoDuZXHhJWIfkgba_-3" edge="1">
          <mxGeometry relative="1" as="geometry">
            <Array as="points">
              <mxPoint x="1390" y="-87" />
              <mxPoint x="1390" y="-460" />
            </Array>
            <mxPoint x="1197" y="-385" as="targetPoint" />
          </mxGeometry>
        </mxCell>
        <mxCell id="WRViUmnpg-N0fgN5oUnf-98" value="&lt;font style=&quot;font-size: 20px;&quot;&gt;织织内&lt;br&gt;出站邮件&lt;/font&gt;" style="edgeLabel;html=1;align=center;verticalAlign=middle;resizable=0;points=[];fontSize=11;" parent="WRViUmnpg-N0fgN5oUnf-81" vertex="1" connectable="0">
          <mxGeometry x="-0.2457" relative="1" as="geometry">
            <mxPoint as="offset" />
          </mxGeometry>
        </mxCell>
        <mxCell id="WRViUmnpg-N0fgN5oUnf-82" style="edgeStyle=orthogonalEdgeStyle;rounded=0;orthogonalLoop=1;jettySize=auto;html=1;exitX=1;exitY=0.7;exitDx=0;exitDy=0;exitPerimeter=0;entryX=0.5;entryY=0;entryDx=0;entryDy=0;entryPerimeter=0;strokeColor=#0000CC;strokeWidth=3;fontSize=11;startArrow=none;" parent="1" source="WRViUmnpg-N0fgN5oUnf-46" target="WRViUmnpg-N0fgN5oUnf-79" edge="1">
          <mxGeometry relative="1" as="geometry">
            <mxPoint x="1415" y="-19.5" as="sourcePoint" />
            <Array as="points">
              <mxPoint x="1640" y="-47" />
              <mxPoint x="1640" y="393" />
            </Array>
          </mxGeometry>
        </mxCell>
        <mxCell id="WRViUmnpg-N0fgN5oUnf-97" value="&lt;font style=&quot;font-size: 19px;&quot;&gt;组织内&lt;br&gt;入站邮件&lt;/font&gt;" style="edgeLabel;html=1;align=center;verticalAlign=middle;resizable=0;points=[];fontSize=11;" parent="WRViUmnpg-N0fgN5oUnf-82" vertex="1" connectable="0">
          <mxGeometry x="0.0189" relative="1" as="geometry">
            <mxPoint as="offset" />
          </mxGeometry>
        </mxCell>
        <mxCell id="WRViUmnpg-N0fgN5oUnf-46" value="Internet" style="outlineConnect=0;dashed=0;verticalLabelPosition=bottom;verticalAlign=top;align=center;html=1;shape=mxgraph.aws3.internet_3;fillColor=#D2D3D3;gradientColor=none;strokeColor=#4A4A4A;strokeWidth=8;fontSize=20;" parent="1" vertex="1">
          <mxGeometry x="1310" y="-110" width="150" height="90" as="geometry" />
        </mxCell>
        <mxCell id="WRViUmnpg-N0fgN5oUnf-77" style="edgeStyle=orthogonalEdgeStyle;rounded=0;orthogonalLoop=1;jettySize=auto;html=1;entryX=0.17;entryY=0.2;entryDx=0;entryDy=0;entryPerimeter=0;fontSize=11;strokeColor=#7A3835;strokeWidth=4;fillColor=#f8cecc;" parent="1" source="WRViUmnpg-N0fgN5oUnf-68" target="WRViUmnpg-N0fgN5oUnf-45" edge="1">
          <mxGeometry relative="1" as="geometry" />
        </mxCell>
        <mxCell id="WRViUmnpg-N0fgN5oUnf-108" value="&lt;font style=&quot;font-size: 20px;&quot;&gt;网易组织架构同步&lt;/font&gt;" style="edgeLabel;html=1;align=center;verticalAlign=middle;resizable=0;points=[];fontSize=11;" parent="WRViUmnpg-N0fgN5oUnf-77" vertex="1" connectable="0">
          <mxGeometry x="-0.3505" relative="1" as="geometry">
            <mxPoint as="offset" />
          </mxGeometry>
        </mxCell>
        <mxCell id="WRViUmnpg-N0fgN5oUnf-68" value="网易AD&lt;br&gt;中间件" style="sketch=0;pointerEvents=1;shadow=0;dashed=0;html=1;strokeColor=none;fillColor=#005F4B;labelPosition=center;verticalLabelPosition=bottom;verticalAlign=top;align=center;outlineConnect=0;shape=mxgraph.veeam2.linux_server;strokeWidth=8;fontSize=20;" parent="1" vertex="1">
          <mxGeometry x="320" y="-225" width="60" height="70" as="geometry" />
        </mxCell>
        <mxCell id="WRViUmnpg-N0fgN5oUnf-70" value="" style="shape=flexArrow;endArrow=classic;startArrow=classic;html=1;rounded=0;fontSize=20;" parent="1" source="WRViUmnpg-N0fgN5oUnf-1" target="WRViUmnpg-N0fgN5oUnf-4" edge="1">
          <mxGeometry width="100" height="100" relative="1" as="geometry">
            <mxPoint x="155" y="190" as="sourcePoint" />
            <mxPoint x="255" y="90" as="targetPoint" />
          </mxGeometry>
        </mxCell>
        <mxCell id="WRViUmnpg-N0fgN5oUnf-72" value="&lt;br&gt;DAG高可用" style="text;html=1;strokeColor=none;fillColor=none;spacing=5;spacingTop=-20;whiteSpace=wrap;overflow=hidden;rounded=0;strokeWidth=8;fontSize=11;" parent="1" vertex="1">
          <mxGeometry x="180" y="160" width="70" height="20" as="geometry" />
        </mxCell>
        <mxCell id="WRViUmnpg-N0fgN5oUnf-73" value="" style="sketch=0;pointerEvents=1;shadow=0;dashed=0;html=1;strokeColor=none;fillColor=#505050;labelPosition=center;verticalLabelPosition=bottom;verticalAlign=top;outlineConnect=0;align=center;shape=mxgraph.office.communications.exchange_active_sync;fillColor=#2072B8;fontSize=19;" parent="1" vertex="1">
          <mxGeometry x="260" y="-180" width="30" height="31" as="geometry" />
        </mxCell>
        <mxCell id="WRViUmnpg-N0fgN5oUnf-89" style="edgeStyle=orthogonalEdgeStyle;rounded=0;orthogonalLoop=1;jettySize=auto;html=1;exitX=0.5;exitY=1;exitDx=0;exitDy=0;exitPerimeter=0;strokeColor=#0000CC;strokeWidth=3;fontSize=11;" parent="1" source="WRViUmnpg-N0fgN5oUnf-79" target="WRViUmnpg-N0fgN5oUnf-6" edge="1">
          <mxGeometry relative="1" as="geometry">
            <Array as="points">
              <mxPoint x="1575" y="520" />
              <mxPoint x="1136" y="520" />
            </Array>
          </mxGeometry>
        </mxCell>
        <mxCell id="WRViUmnpg-N0fgN5oUnf-79" value="&lt;font style=&quot;font-size: 19px;&quot;&gt;入站&lt;br&gt;邮件&lt;br&gt;&lt;/font&gt;" style="sketch=0;pointerEvents=1;shadow=0;dashed=0;html=1;strokeColor=none;labelPosition=center;verticalLabelPosition=bottom;verticalAlign=top;align=center;fillColor=#505050;shape=mxgraph.mscae.intune.exchange_connector" parent="1" vertex="1">
          <mxGeometry x="1550" y="388.5" width="50" height="55" as="geometry" />
        </mxCell>
        <mxCell id="WRViUmnpg-N0fgN5oUnf-118" value="" style="shape=image;html=1;verticalAlign=top;verticalLabelPosition=bottom;labelBackgroundColor=#ffffff;imageAspect=0;aspect=fixed;image=https://cdn2.iconfinder.com/data/icons/essential-web-1-1/50/group-customers-team-contacts-family-128.png;strokeColor=#4A4A4A;strokeWidth=8;fontSize=11;" parent="1" vertex="1">
          <mxGeometry x="220" y="40" width="40" height="40" as="geometry" />
        </mxCell>
        <mxCell id="WRViUmnpg-N0fgN5oUnf-119" value="&lt;font style=&quot;font-size: 20px;&quot;&gt;微软AD同步&lt;br&gt;服务器&lt;/font&gt;" style="sketch=0;pointerEvents=1;shadow=0;dashed=0;html=1;strokeColor=none;fillColor=#505050;labelPosition=center;verticalLabelPosition=bottom;verticalAlign=top;outlineConnect=0;align=center;shape=mxgraph.office.servers.windows_server;strokeWidth=8;fontSize=11;" parent="1" vertex="1">
          <mxGeometry x="75" y="-240" width="80" height="85" as="geometry" />
        </mxCell>
        <mxCell id="V7OJoDuZXHhJWIfkgba_-21" style="edgeStyle=orthogonalEdgeStyle;rounded=0;orthogonalLoop=1;jettySize=auto;html=1;labelBorderColor=default;strokeColor=#38571a;strokeWidth=4;fontSize=18;" edge="1" parent="1" source="WRViUmnpg-N0fgN5oUnf-125">
          <mxGeometry relative="1" as="geometry">
            <mxPoint x="855" y="720" as="targetPoint" />
          </mxGeometry>
        </mxCell>
        <mxCell id="WRViUmnpg-N0fgN5oUnf-125" value="" style="dashed=0;outlineConnect=0;html=1;align=center;labelPosition=center;verticalLabelPosition=bottom;verticalAlign=top;shape=mxgraph.weblogos.chrome;strokeColor=#4A4A4A;strokeWidth=8;fontSize=20;" parent="1" vertex="1">
          <mxGeometry x="810" y="794.6" width="90" height="85.4" as="geometry" />
        </mxCell>
        <mxCell id="V7OJoDuZXHhJWIfkgba_-24" style="edgeStyle=orthogonalEdgeStyle;rounded=0;orthogonalLoop=1;jettySize=auto;html=1;labelBorderColor=default;strokeColor=#38571a;strokeWidth=4;fontSize=18;" edge="1" parent="1" source="WRViUmnpg-N0fgN5oUnf-127">
          <mxGeometry relative="1" as="geometry">
            <mxPoint x="1240" y="720" as="targetPoint" />
            <Array as="points">
              <mxPoint x="1240" y="720" />
              <mxPoint x="1240" y="720" />
            </Array>
          </mxGeometry>
        </mxCell>
        <mxCell id="WRViUmnpg-N0fgN5oUnf-127" value="" style="image;html=1;image=img/lib/clip_art/telecommunication/iPhone_128x128.png;strokeColor=#4A4A4A;strokeWidth=8;fontSize=20;" parent="1" vertex="1">
          <mxGeometry x="1200" y="802.3" width="80" height="80" as="geometry" />
        </mxCell>
        <mxCell id="V7OJoDuZXHhJWIfkgba_-30" style="edgeStyle=orthogonalEdgeStyle;rounded=0;orthogonalLoop=1;jettySize=auto;html=1;labelBorderColor=default;strokeColor=#38571a;strokeWidth=4;fontSize=18;" edge="1" parent="1" source="WRViUmnpg-N0fgN5oUnf-128">
          <mxGeometry relative="1" as="geometry">
            <mxPoint x="1430" y="720" as="targetPoint" />
          </mxGeometry>
        </mxCell>
        <mxCell id="WRViUmnpg-N0fgN5oUnf-128" value="" style="image;html=1;image=img/lib/clip_art/computers/Laptop_128x128.png;strokeColor=#4A4A4A;strokeWidth=8;fontSize=20;" parent="1" vertex="1">
          <mxGeometry x="1380" y="792.3" width="100" height="90" as="geometry" />
        </mxCell>
        <mxCell id="V7OJoDuZXHhJWIfkgba_-23" style="edgeStyle=orthogonalEdgeStyle;rounded=0;orthogonalLoop=1;jettySize=auto;html=1;labelBorderColor=default;strokeColor=#38571a;strokeWidth=4;fontSize=18;" edge="1" parent="1" source="WRViUmnpg-N0fgN5oUnf-129">
          <mxGeometry relative="1" as="geometry">
            <mxPoint x="1050" y="720" as="targetPoint" />
          </mxGeometry>
        </mxCell>
        <mxCell id="WRViUmnpg-N0fgN5oUnf-129" value="" style="shape=image;html=1;verticalAlign=top;verticalLabelPosition=bottom;labelBackgroundColor=#ffffff;imageAspect=0;aspect=fixed;image=https://cdn3.iconfinder.com/data/icons/capsocial-round/500/Outlook-128.png;strokeColor=#4A4A4A;strokeWidth=8;fontSize=20;" parent="1" vertex="1">
          <mxGeometry x="1000" y="787.3" width="100" height="100" as="geometry" />
        </mxCell>
        <mxCell id="V7OJoDuZXHhJWIfkgba_-20" style="edgeStyle=orthogonalEdgeStyle;rounded=0;orthogonalLoop=1;jettySize=auto;html=1;labelBorderColor=default;strokeColor=#38571a;strokeWidth=4;fontSize=18;" edge="1" parent="1" source="WRViUmnpg-N0fgN5oUnf-130">
          <mxGeometry relative="1" as="geometry">
            <mxPoint x="875" y="-720" as="targetPoint" />
          </mxGeometry>
        </mxCell>
        <mxCell id="WRViUmnpg-N0fgN5oUnf-130" value="" style="dashed=0;outlineConnect=0;html=1;align=center;labelPosition=center;verticalLabelPosition=bottom;verticalAlign=top;shape=mxgraph.weblogos.chrome;strokeColor=#4A4A4A;strokeWidth=8;fontSize=20;" parent="1" vertex="1">
          <mxGeometry x="830" y="-862.6999999999999" width="90" height="85.4" as="geometry" />
        </mxCell>
        <mxCell id="V7OJoDuZXHhJWIfkgba_-18" style="edgeStyle=orthogonalEdgeStyle;rounded=0;orthogonalLoop=1;jettySize=auto;html=1;exitX=0.5;exitY=1;exitDx=0;exitDy=0;labelBorderColor=default;strokeColor=#38571a;strokeWidth=4;fontSize=18;" edge="1" parent="1" source="WRViUmnpg-N0fgN5oUnf-131">
          <mxGeometry relative="1" as="geometry">
            <mxPoint x="1260" y="-720" as="targetPoint" />
          </mxGeometry>
        </mxCell>
        <mxCell id="WRViUmnpg-N0fgN5oUnf-131" value="" style="image;html=1;image=img/lib/clip_art/telecommunication/iPhone_128x128.png;strokeColor=#4A4A4A;strokeWidth=8;fontSize=20;" parent="1" vertex="1">
          <mxGeometry x="1220" y="-855" width="80" height="80" as="geometry" />
        </mxCell>
        <mxCell id="V7OJoDuZXHhJWIfkgba_-17" style="edgeStyle=orthogonalEdgeStyle;rounded=0;orthogonalLoop=1;jettySize=auto;html=1;exitX=0.5;exitY=1;exitDx=0;exitDy=0;labelBorderColor=default;strokeColor=#38571a;strokeWidth=4;fontSize=18;" edge="1" parent="1" source="WRViUmnpg-N0fgN5oUnf-132">
          <mxGeometry relative="1" as="geometry">
            <mxPoint x="1450" y="-720" as="targetPoint" />
          </mxGeometry>
        </mxCell>
        <mxCell id="WRViUmnpg-N0fgN5oUnf-132" value="" style="image;html=1;image=img/lib/clip_art/computers/Laptop_128x128.png;strokeColor=#4A4A4A;strokeWidth=8;fontSize=20;" parent="1" vertex="1">
          <mxGeometry x="1400" y="-865" width="100" height="90" as="geometry" />
        </mxCell>
        <mxCell id="V7OJoDuZXHhJWIfkgba_-19" style="edgeStyle=orthogonalEdgeStyle;rounded=0;orthogonalLoop=1;jettySize=auto;html=1;labelBorderColor=default;strokeColor=#38571a;strokeWidth=4;fontSize=18;" edge="1" parent="1" source="WRViUmnpg-N0fgN5oUnf-133">
          <mxGeometry relative="1" as="geometry">
            <mxPoint x="1070" y="-720" as="targetPoint" />
          </mxGeometry>
        </mxCell>
        <mxCell id="WRViUmnpg-N0fgN5oUnf-133" value="" style="shape=image;html=1;verticalAlign=top;verticalLabelPosition=bottom;labelBackgroundColor=#ffffff;imageAspect=0;aspect=fixed;image=https://cdn3.iconfinder.com/data/icons/capsocial-round/500/Outlook-128.png;strokeColor=#4A4A4A;strokeWidth=8;fontSize=20;" parent="1" vertex="1">
          <mxGeometry x="1020" y="-870" width="100" height="100" as="geometry" />
        </mxCell>
        <mxCell id="WRViUmnpg-N0fgN5oUnf-134" value="&lt;b&gt;HTTPS \ IMAP \ POP \ SMTP &amp;nbsp;\ActiveSync&lt;/b&gt;" style="text;html=1;strokeColor=none;fillColor=none;align=center;verticalAlign=middle;whiteSpace=wrap;rounded=0;strokeWidth=8;fontSize=20;" parent="1" vertex="1">
          <mxGeometry x="823.9200000000001" y="-680" width="492.17" height="30" as="geometry" />
        </mxCell>
        <mxCell id="WRViUmnpg-N0fgN5oUnf-135" value="&lt;b&gt;网易灵犀专有协议&lt;/b&gt;" style="text;html=1;strokeColor=none;fillColor=none;align=center;verticalAlign=middle;whiteSpace=wrap;rounded=0;strokeWidth=8;fontSize=20;" parent="1" vertex="1">
          <mxGeometry x="1249.86" y="-680" width="220" height="30" as="geometry" />
        </mxCell>
        <mxCell id="WRViUmnpg-N0fgN5oUnf-136" value="&lt;b&gt;HTTPS &amp;nbsp;\ &amp;nbsp;IMAP &amp;nbsp;\ POP &amp;nbsp;\ &amp;nbsp;SMTP &amp;nbsp;\ ActiveSync&lt;/b&gt;" style="text;html=1;strokeColor=none;fillColor=none;align=center;verticalAlign=middle;whiteSpace=wrap;rounded=0;strokeWidth=8;fontSize=20;" parent="1" vertex="1">
          <mxGeometry x="835" y="640" width="445" height="30" as="geometry" />
        </mxCell>
        <mxCell id="fSdOwLghDvWBL0EnTMD--4" value="HTTPS API接口" style="rounded=1;whiteSpace=wrap;html=1;fontSize=19;fillColor=#dae8fc;strokeColor=#6c8ebf;" parent="1" vertex="1">
          <mxGeometry x="1530" y="-710" width="270" height="90" as="geometry" />
        </mxCell>
        <mxCell id="V7OJoDuZXHhJWIfkgba_-16" style="edgeStyle=orthogonalEdgeStyle;rounded=0;orthogonalLoop=1;jettySize=auto;html=1;exitX=0.5;exitY=1;exitDx=0;exitDy=0;labelBorderColor=default;strokeColor=#38571a;strokeWidth=4;fontSize=18;" edge="1" parent="1" source="fSdOwLghDvWBL0EnTMD--6">
          <mxGeometry relative="1" as="geometry">
            <mxPoint x="1644" y="-720" as="targetPoint" />
          </mxGeometry>
        </mxCell>
        <mxCell id="fSdOwLghDvWBL0EnTMD--6" value="&lt;font style=&quot;font-size: 18px;&quot;&gt;第三方应用系统&lt;/font&gt;" style="aspect=fixed;perimeter=ellipsePerimeter;html=1;align=center;shadow=0;dashed=0;spacingTop=3;image;image=img/lib/active_directory/server_farm.svg;" parent="1" vertex="1">
          <mxGeometry x="1600" y="-862.7" width="87" height="87" as="geometry" />
        </mxCell>
        <mxCell id="fSdOwLghDvWBL0EnTMD--8" value="网易AD&lt;br&gt;中间件" style="sketch=0;pointerEvents=1;shadow=0;dashed=0;html=1;strokeColor=none;fillColor=#005F4B;labelPosition=center;verticalLabelPosition=bottom;verticalAlign=top;align=center;outlineConnect=0;shape=mxgraph.veeam2.linux_server;strokeWidth=8;fontSize=20;" parent="1" vertex="1">
          <mxGeometry x="210" y="-225" width="60" height="70" as="geometry" />
        </mxCell>
        <mxCell id="fSdOwLghDvWBL0EnTMD--9" value="" style="shape=flexArrow;endArrow=classic;startArrow=classic;html=1;rounded=0;fontSize=20;" parent="1" source="fSdOwLghDvWBL0EnTMD--8" target="WRViUmnpg-N0fgN5oUnf-68" edge="1">
          <mxGeometry width="100" height="100" relative="1" as="geometry">
            <mxPoint x="270" y="-199.5" as="sourcePoint" />
            <mxPoint x="320" y="-195.5" as="targetPoint" />
          </mxGeometry>
        </mxCell>
        <mxCell id="fSdOwLghDvWBL0EnTMD--10" value="&lt;br&gt;中间件高可用" style="text;html=1;strokeColor=none;fillColor=none;spacing=5;spacingTop=-20;whiteSpace=wrap;overflow=hidden;rounded=0;strokeWidth=8;fontSize=11;" parent="1" vertex="1">
          <mxGeometry x="265" y="-225" width="80" height="20" as="geometry" />
        </mxCell>
        <mxCell id="fSdOwLghDvWBL0EnTMD--12" value="" style="sketch=0;pointerEvents=1;shadow=0;dashed=0;html=1;strokeColor=none;fillColor=#505050;labelPosition=center;verticalLabelPosition=bottom;verticalAlign=top;outlineConnect=0;align=center;shape=mxgraph.office.communications.exchange_active_sync;fillColor=#2072B8;fontSize=19;" parent="1" vertex="1">
          <mxGeometry x="370" y="-180" width="30" height="31" as="geometry" />
        </mxCell>
        <mxCell id="V7OJoDuZXHhJWIfkgba_-1" value="&lt;br&gt;网易组织架构" style="aspect=fixed;html=1;points=[];align=center;image;fontSize=12;image=img/lib/azure2/identity/Azure_AD_B2C.svg;" vertex="1" parent="1">
          <mxGeometry x="880.0000000000001" y="-463" width="105.66" height="98" as="geometry" />
        </mxCell>
        <mxCell id="V7OJoDuZXHhJWIfkgba_-3" value="&lt;font style=&quot;font-size: 19px;&quot;&gt;入站&lt;br&gt;连接器&lt;br&gt;&lt;/font&gt;" style="sketch=0;pointerEvents=1;shadow=0;dashed=0;html=1;strokeColor=none;labelPosition=center;verticalLabelPosition=bottom;verticalAlign=top;align=center;fillColor=#505050;shape=mxgraph.mscae.intune.exchange_connector" vertex="1" parent="1">
          <mxGeometry x="1420" y="-487.5" width="70" height="55" as="geometry" />
        </mxCell>
        <mxCell id="V7OJoDuZXHhJWIfkgba_-4" value="&lt;font style=&quot;font-size: 19px;&quot;&gt;出站&lt;br&gt;连接器&lt;br&gt;&lt;/font&gt;" style="sketch=0;pointerEvents=1;shadow=0;dashed=0;html=1;strokeColor=none;labelPosition=center;verticalLabelPosition=bottom;verticalAlign=top;align=center;fillColor=#505050;shape=mxgraph.mscae.intune.exchange_connector" vertex="1" parent="1">
          <mxGeometry x="1540" y="-490" width="70" height="55" as="geometry" />
        </mxCell>
        <mxCell id="V7OJoDuZXHhJWIfkgba_-15" value="&lt;b&gt;网易企业邮箱&lt;/b&gt;" style="html=1;verticalLabelPosition=bottom;align=center;labelBackgroundColor=#ffffff;verticalAlign=top;strokeWidth=5;strokeColor=#606060;shadow=0;dashed=0;shape=mxgraph.ios7.icons.cloud;fontSize=16;" vertex="1" parent="1">
          <mxGeometry x="1062.83" y="-480" width="235.45" height="140" as="geometry" />
        </mxCell>
        <mxCell id="V7OJoDuZXHhJWIfkgba_-8" value="&lt;font style=&quot;font-size: 16px;&quot;&gt;Internet&lt;/font&gt;" style="shape=flexArrow;endArrow=classic;startArrow=classic;html=1;rounded=0;fontSize=25;" edge="1" parent="1">
          <mxGeometry width="100" height="100" relative="1" as="geometry">
            <mxPoint x="1320.14" y="-107.5" as="sourcePoint" />
            <mxPoint x="1320.0000000000002" y="-235" as="targetPoint" />
          </mxGeometry>
        </mxCell>
        <mxCell id="V7OJoDuZXHhJWIfkgba_-13" style="edgeStyle=orthogonalEdgeStyle;rounded=0;orthogonalLoop=1;jettySize=auto;html=1;fontSize=16;labelBorderColor=default;fillColor=#f8cecc;strokeColor=#7D3936;strokeWidth=4;" edge="1" parent="1" source="WRViUmnpg-N0fgN5oUnf-45" target="V7OJoDuZXHhJWIfkgba_-1">
          <mxGeometry relative="1" as="geometry" />
        </mxCell>
        <mxCell id="V7OJoDuZXHhJWIfkgba_-14" value="网易组织架构同步" style="edgeLabel;html=1;align=center;verticalAlign=middle;resizable=0;points=[];fontSize=16;" vertex="1" connectable="0" parent="V7OJoDuZXHhJWIfkgba_-13">
          <mxGeometry x="-0.1223" y="2" relative="1" as="geometry">
            <mxPoint as="offset" />
          </mxGeometry>
        </mxCell>
        <mxCell id="WRViUmnpg-N0fgN5oUnf-36" value="" style="shape=image;verticalLabelPosition=bottom;verticalAlign=top;imageAspect=0;aspect=fixed;image=data:image/png,iVBORw0KGgoAAAANSUhEUgAAAmAAAACcCAYAAADYpBebAAAAAXNSR0IArs4c6QAAAHhlWElmTU0AKgAAAAgABAEaAAUAAAABAAAAPgEbAAUAAAABAAAARgEoAAMAAAABAAIAAIdpAAQAAAABAAAATgAAAAAAAACWAAAAAQAAAJYAAAABAAOgAQADAAAAAQABAACgAgAEAAAAAQAAAmCgAwAEAAAAAQAAAJwAAAAAk8CmTwAAAAlwSFlzAAAXEgAAFxIBZ5/SUgAAQABJREFUeAHsnQmAHEX1/3v2yp1whCscCSQQCZAECEm4wy1yXyr8BAEBEQFFVEAO4x+Q4+cJIiICgvpDRRFQQEFuwn0HwhmScCchQM7dZI/5f77VVb3dPcfO7vbMziZduz1V9arqvVev63j9qrra81KXSiCVQCqBVAKpBFIJpBJIJZBKIJVAKoFUAqkEUgmkEkglkEoglUAqgVQCqQRSCaQSSCWQSiCVQCqBVAKpBFIJpBJIJZBKIJVAKoFUAqkEUgmkEkglkEoglUAqgVQCqQRSCaQSSCWQSiCVQCqBVAKpBFIJpBJIJZBKIJVAKoFUAqkEUgmkEkglkEoglUAqgVQCqQRSCaQSSCWQSiCVQCqBVAKpBFIJpBJIJZBKIJVAKoFUAqkEUgmkEkglkEoglUAqgVQCqQRSCaQSSCWQSiCVQCqBVAKpBFIJpBJIJZBKIJVAKoFUAqkEUgmkEkglkEoglUAqgVQCqQRSCaQSSCWQSiCVQCqBVAKpBFIJpBJIJZBKIJVAKgFJINNbxTBlarbvJ0u82vqBXtbVYRiBD1ykC77KV7tbPsDLrFjqtT44NdNU7bym/KUSSCWQSiCVQCqBVAL5JVD1ChiKVt3yhd7g1tqmIXVe3wGt2eY+mbqatWuymQ3bvNa+qJBGAavJX792aK0fNF6Q2QJtLgMO0lqBKj0A+FEHtmWUrFxhcKiEy5WYn814mUzWa2zNem9ka7yldVlvqVfvLW1p8hY9+ENvoUlNjFqKKJVAKoFUAqkEUgmkEiiHBKpSAdv2pGx9n8FLVs+21g9uqcmMhclJNTU1k7xsZsvahto1M9JwnN0rXAPCQdQGMgGAMi49BAvSXX5JuRPpOTgdjRgeRZN0kkEWra91hTcHvDPg48m2Nu9JwG/2q/M+2W65t3Dq1ExbkjRTXKkEUgmkEkglkEoglUAyEgipGskg7A6WLU7JDuzft3H1TLZ2ApacI7g+X1tXt7pwZlElstiZMlmreVnOAwXKEY4oQH6mSB6XbstL2yqeTo5wBlvOeAEO5RED/FiYizq2yuVLERNto5QSbl3uvY+g/ubVeXfV1ngvNzd6n6TLleWSfoo3lUAqgVQCqQRSCXRNAlZd6FrhpEptf0a2X1NN09r1rXXHZb22E2obGtY3CpdMPAQiyoyUjYiWE+g87QGTx3JnlaewDqXiBqeymEAnlTBbzha1hEDlkDqaAf4gS9kDIp1hTbSGq2WF9xzK2LV1nnfnkBZv7i1TMyvKzkBKIJVAKoFUAqkEUgmkEuhQAk5l6DBjWTJMzdZsN69xfa+h/hvZbPb02rr6AW1tLShd2ZAy41POVXYs66EaRPIQCZLyKUSRdNFIWAkTdUcjYKQsUiyIVNWuqTeK2CyMY7+oy3i3/OfczIcFC6QJqQRSCaQSSCWQSiCVQEUk0EOqAZu6TssObvNWHMCC4o9q6hpGtrU1o68QCzgqRSGSjCgQlLFBFw8ndUcJs2TcHfFRWSKOhqMpjoKwSwzDHJYK+rBRiyLW2uw9nW3xzkG/fYhlSTTd1KUSSCWQSiCVQCqBVAI9IYFAVagk8YnfbNqstTZzKYrXIVnWyQLXrq8ESlV8/5VhOMR1oAyFYUIYjrtwqUpYuDxlXfH2gFOobErYc5nx/WAQCClmQY0rGxArYqrNuwJV9/L7z8u8X1kGUmqpBFIJpBJIJZBKIJWAJODrCBWUxTbfbNofJeCKTE3dxlnt8RITYS6kJDh+bKBkJSxUzhQNEIVo5FPCwjzYgpHyRAJUQUCF9G8BYc/lMeliKgj4uV26knrA1bApjJXex3hH8rv3XZB5vAdYSEmmEkglkEoglUAqgVVaAhVTBUadlu0zpG3Fd9hkfxEaV01AOJ9C1K6vBJpPXiVMt84i8tEEWNt1njDIhfPRFKog3bWJ0DKoTTOey2ezBbzlywPMBweBqlDCDBNZ72POFDvvvvMz17gap34qgVQCqQRSCaQSSCVQfgmwN7v8boup2YZBLU1nZbNtF/KKXo22ernTJPxAViCdM+E7pdugC7BJvx0YCranq0BQygRNLAxy5SwuJQV82HC0DHy58iazpWDDoihneDMBE/W5CJXzcQCwMOO5dL9I5X+hz9EVQ/Eu2uPC7Dcrz0BKMZVAKoFUAqkEUgmsuhKwNpvyCWDbk56pb6vd4jym+7MzNTUN5kCvENWo1cku6Ln0dqORMyNhuAkBbT7j2bBvXlL2cKItHsrjgs7sFfAhUZBo0tszuWy+oFy6zesDKeOQ2HJRHEq3OW0gnu7wVNI3rGS9edC8+L7zMldUknZKK5VAKoFUAqkEUgmsqhJwKkFZ6m+VrwtQPc5k1bEfy4+GTo7iAaAd5rMUKCsqEUn3AUG6nz1U3s9vc8mzyMM0fJgtSkIRmkH50HJkAIvhFNqAsRCNgFBAKgiYpFC6UFfaiWWsdB9B9zI25v+i0vRTeqkEUgmkEkglkEpgVZNAWZcgW70tvpfNZs5krauf2XCvZTcu4+nHOQsLJwRLf8oTTjdlYkuDfhYfsc1vyhgkrrBNdnTbwST4QJfdkjDsuLBKx3lypExGizdYjrSJBmzTDMiFhcz/t4wZSj3yI1ZYjlwXLfaM3S/OnuAzwVcnU5dKIJVAKoFUAqkEUgmURQJlmGQ1cWey409ecazX1npxpq5hWLaNoyYENVWwJMOeDbfnIWMxq5TLT4GwwSkoH6T7MvPzALRw44XyBDgcTRVz6fgu6AdyaYazu8wBTZtocASIgur5hCw84ENlKu3gQfT5nuQLbMw/8/7zM/dXmoV89HbYYYe1ly1bNqRPnz75kns9DIWdr2tlG59++ul3bWXUGpyankj9tt566+H19fV9sM4mijcR5gogaW5uzj733HNvFUjuMviII46o/eCDD9YB/8DeJA9VWG2lFVdXVzf/ySefXAQo8bYSxrnddtttiIz69TY5SVZyiKoGmS169tlnq+bw6W222WYUfVH3zdzP2trapY8//nh6HJAEsgo60xCSrvfmJ6yY3FDb+stMTf1EnXeAPhaQiCsmSjBMOE7wXdBpVxHFJJLuo2WACPCrsImFQIaGA1q4i7qCAQobiKQTscUC5PF0QyNA5gd8VLZk2HPI8P1gEHBVdpgq6zu+st6/BtZ7R91xVmZxZRlopzZlypS6xYsX/5J7O5FBtKE9ZaULUcWMJor7mVgvZ2J9L6kaIsPVFi1adAX4x4JT1u72jpgUkTLige8PQP/DZ3D4/v6FbtJDGR1WU1Ojh4vl3UTVU8XVXj5ta2v7KwrqVeVgAsVrE/BfBO4tuXpVm4nJQyOazjr6b0NDwwUoOo2x9EpGa1C+NJ7tDFE30op+H9rjDz799NM733rrrd7aJispx5WKFidCJevmfJZdfZ/vNH53yXJvYt8+rV5dLZ8VUhe2Tc4sdzmAhRvP5cE3NjSx5Wf2PcWFI5Luw5i8UFwcAVve4VM5XEDXrqz5djoSXDHyGxSOppIcDtFU3NJXgok7Rm0+eXKunFCppOEtlMelt9eFRIvLkDdI9FNhBxv6qDc87Lmk2ft/UD+jwhwYcrJSvP322ycSOZ6rb3Bve4KZCtBU/WjDY1paWmaPHTv2mpdeemlpEmRRYE8G92EM8P3VR3qhk+JYt/322x+Y1OSJktsXeYzGOtILxaExyB+w8NfYdtttH8a6Mz3JioBzCLI5Ehkdadtlkugrjkt1QJmUxfNViF9fcQYsQca0DGPa1vAzLswDFjCPfr/BkCFD+Hpv6iSBLbbYoqFv376HE9ycK6mBSx1nOfKfzlh4L/1mGfEed4kqYFRs8OIm79Kfntxn/xffrvGmvbTce5NnWI39fbFh0NaMM0pGoIVYGF4AIr/TbXzNSXeBpT/dCqsEtaf7ME0w6mzGufLK7xxJEbrhPK4YMINCGSFkaPhBg8WCAz6MGkYmv4wp4udTMFKuk0pYrLxBWqEffQSdD3n3bWv1Dtnzwuzt/z0/82CFSAdkZsyYUcuS4wHcz769VHEI6lJKQHVkINby0vYoCHdQJqmlt23AVc8EVAob1ZpnT6x4iU1OtCnErf2c6qC9z4lvO86tC/e6v4kqYOBfC/zjRaOXt5vwzR1MXWTN62m3AvmGZgZt+WhTW2y197Sn+asW+g3I42jksiMMJdVRNcu3gnM+uKdj5b2WbR//7ukKJ6qALWv2vlhX6x2+73Y1fcaNzHo7b1nvvf1B1nthZpv39Btt3txPmWiwsNRDVb7ZkhJoUr6kA8UFsZuWKrGZgNSdEpQwaWi2TAh1IGc1f38rDJlEQ9kNfj+L6x7mu5QkKl35nG6XW0aDeUgJs5Ry8XaghFEuLA/DUogvi7Yinp2vN2TaPhOCD1aEaIjI8uXLMzwBDQbUQxIIMVOhoD8ue/1QxJLc7GZbb4UqUQYymphWW2011SN1MQkgm74xULej4Kzj4nF5pXNpG+olt3TgwIE1WCyHYoUdVAaWVwPnpoy3G06YMGEuuxueLwONklEmpoC9+262Hy38SCiv0dTseUMHZ7xha2S87UZ73uQxNd6eKGJvvNvmvfh2m/fG+1lv7idtWMUyKGNSq+T831zFxSo/ViPpUAmzGpKzShkFSthDU7mvZBlMgRJmlCzHBnkNHwaXCmuJyPKhPC5dOOVAHihhPsT8KjlKN6SEkZa/rkKugkYFjJQ3SCvxA/1MrVfDl6J22u3i7DEPnJu5qRJkwzToIDlPhZqM6ZSIRvdDQuqdTvxrCSxPHbLUL8mKxXFloc1xfNUpQ8kDi4B4LttkCQ1TfyyN+eRfdQ1KbUVWEl0xp3uZA4zl6XQUnIgIIUE37BTXchlJYXBVhcWj+LNWpXg7ql7Gq0qK1cEM97KlzG1tO2p6PtehPVnjxBSwNdbxjmSMGNvAs1MzClgrzb1RLz/SjzdeL+Nttn7G23mrGqOEvYkyNh1FbMacNm8m4RVsx2hAEdMSJbYko3/ox40Bps+Dx1dmfEtYkE4+07OCdIkzpBApkTTj2bAROGGDSUTy5VG6cBp0REznNp4prjLt6aIRomnKCOZndfgNmMoEg5vDge/yqq6m3jZgkkLpFmPZPfuZztUY4k+FWMUVsHgFrcyeZnC9l2spSoSTbjxr1ccZWHgzxTysaFkkseW1jiqODDW7vor8/oM/l2jFaHfEGzzJ8jKG64vlHHihs4DrB5K7xNERX1WQ3gy/W8LrQfAiq3BPOC3dzGCv0p/gI7E5I+mKwGML/G2Cvw/+cPykSXQZ3y233NLK/joxlDOaw2trU1OTxoSV1o0ePXrQgAEDNqaugxm7zYMD7dq8pQrsVfZkoTVU3O2NFWxHrGDTKk7ZEkykM9HQM43N3tEoEUNbYs1IfaAZmKRbz3A/flSNt/WmnrfbuBpv+qysUcJef6/Newur2PsLpMRkvbo6nrZYoow48LRbjPw2LNxOSQsUIj+JoiGFyMKMF6RHsAfdIpKHSLuSRaQLSlhQPkROdaTR+RBHwxC2IJ8UxC1NwGFLWghVWYNmQ36bN3KPi7N73Xdu5t6yEisBOXJ7fNCgQT988MEHY62shMJVloXB+HOwpKtiSpDaHDKcjiXjUt62nFtlIvHYl3EAPJVVAWOgXwiNS6qt7sX44c3NXbl3U7gGa+zoAScF7EXeurysB2h3iiQTqh5qNkNWwxOWVe2kSZMGgLOe/tPpm4CCpX6upd2cB0dwDmLZbe3x48cv6devX3zm61T9XWYs7BloNiX1Qo/D2xVfL1XNnDnzy9wTvdjRB8XLWW7ric9BIfsleB+L4dbboUYfiME7HYWGwZOnPXA+afaHbPrf/5VXXsFcVHmXiAK2dLm3N61qTL21fhWqhhYXlls9d7WBGW+PrTPe7lvXGCvYi+wTe2VOlnCbN+sjvhK9iNefaLK6uA++o3yghEnjKqQQqXuYZt6xEqab4utC7f3CFHc48AMlyilEwExu/UTSRTdEU1y7dHzjLBmfrouE6uVAomHwqyANiHCllTBtyMcNpg7aC9bjCpg6r84Eg5cFYqyXOw3GPeEaaHuSYVUpYHrzCb4GaLBMXVQCTEQDkU1NT8oG2j3VXqPC6CCGrAahfCQyr4VJ8cC0CxbAvYENCSkQ4SxFw/Al6/PG8XsITOX2Z8/TSJbF8ZoT6wAcvbGcoy/uRXG+BxpO6SnKZzkSZ8+ePYl6n0L9xkv3cjKQz71aH5q/DtNFznrAfo68uo9u5gxn6VQYGQvHAK5NuJw2IRzqU3uh9O5L+HYBKu0SaagsBh1DDVeLW7+KVaaV5mCWKMk0Yp2MN2pYrbf/ZM97mWXJ599EGZud9d79OOu9My/rNXI6ipYnzcZ98udViFyzhZGoshJSiOytjKaTH3h4A7z4VtZA4RFOxUXDKWHxdNIMC7ZgZE+YykfSKYxTu/DnGxJdHlPepeObcn6icChfJecorGB1KGKTd78oO5zPFM3xOUt/e6sEGHDamAx65GmvmMx4Am3GetHrLZvF6tib0+wkVvVVYEKXoqFRNGm3FwjPwvqlUbhLTsqHrwu0F5dcwbkL/XKXdmhyIdAfjAX1K88///xTYO2Rs1e4J4dTv618vSpSN+01nMbbiA+FoZtssslyjuz4JeOUlLMkXAs8bAC+U0C2XfgeSP7AfjBixIj/oCg2JUGsMzi6rYDBf99ly71JtXVeQ1eO1lHtm2kWuqRYjN+kxpvAMuUijsx7+vU27ymut9gn9gHK2LzPsmY5UxYxf78YhZ1CFFZMCAdKlqRhrFLCb/tOON2BTHmXoEJ+Lw6UMMVNnvYA0aiSBi6DziYYJYw8BhhGbdKV4JwF2DxGyVKSkAXlgkA7H654GX3TPBE31LUH5YoykkpRV0AC9FdZCEbxRN9GuCqsGvRLWMnKApbUgFsBSVaOBBN3E5MHXbBHXT1tpp63kxN/8zKpWmnJDTnJWtjteS3OEzh1htRi7kXSy8AZKWblcih3svocxvLmqy+88MJn5aJTCC8PVfsiu325L7XhehLXyxIzuX4fL6v9csB0vEqSR6xkaL910I0oYNDgtmYmDh06dHcUsLvivJQ73u2GihXrIJSdNZJgVJP9Cp6B9XjeAGdT2Ce2x/gaYwl78rUsClmrNweL2NxPPe/TJbJs+YoYK8USo6+YiJGI4kJcQxcwGkLpSpjFY4ra8gKJptHjbCCSTsTELX2j+JlC7cdUGCsWMKfYCY3vLG8GgcVjwwWVMBUUrXI6n79+kND+nFQBK6esy4xb7R+3BYPe9/AXMRiFzfFlpl4UvRjTHpn1iuZKNlEDsiZT7O7V65hAm7hfO8BhTyo+emFhU64zOCKm23NGuaQNf3phQQpHJdtRuaqTCF7kITyDaUc9ct/oX//Dffmc5SOok40/xvJopc7iykLzXhiYAT9j7Fho+CEsS9y5jAdPsUf044DJCgS6fVMYOfdmFO+XtBIf3i+2NscAHbZTxjtkxxrv1Xey3rQZbd6znCv2AZv2pYhhgcNl/b1iaEdOuWlXXExycSVMKIyShucQaFoQTJ4NK1tECSNDfGnQzHOUay8TWwbNg9PH24ESJj6E1Jj3cvkSjnI4RMr75972216TrX/265nmctBIcZZfAhp0GGiG6So/tc5RgCfzgBQeGDuHoXO52RhcM2vWrK3Zl1KpCaBzDIZySzZYLY18QuBKBqWAbYW+XvWb8NV+3JWwgGSm7dF9eF2tD/dO2w40g1XUodAcDMFJcaJqz7gX8K+Lp5UzjvF2HkbSnyKLOF1YyezA/T2cceFaa4ErJysB7m4rYOgfE2jzfY2WEqBNNuD2iwnrZhtkvC2H13pNe9Z6z72V9e5/odXsG1vAu02LG7Pe8hYmGf70bG/uc7u+YjUWKVB+HrIZmNVnQulW0VEGq3iZ1suP33aEg7IkM23YPNYCZ9pWCK/Np0zBvjDBlEXlg3QLE28iYuHGC+UR3UorYSKPy64xz9sN/x4TS396pQTKNDn1SlnAdL88+1J6a13KyrfajZTAXuzcyNzVKixjXF6CHGSJ7OpeRS3557M666E2CeFqPu/+nA6SJBzy+hJ4RqntxJzeqr2f4x8ejsHLGtXnzCZOnHg77VhvZO4V5sta5M58/fXXb4WJeWVlJIS8WzdrXjY7kPMl1tN+rEr1zRaaqS7pKBM2y3g7bF7nfbw46z3+atZ76KVW7/X3st4ivvKkjftS3MwiC/ffNAHKOIUHdchoQGElTXIJ0lWAiJQ5pwwp3ShACqg7+yhM0E8oooSZMiElTHFX3tASwHdqGIESBiiuqBkexKgpZ1TAgG+Howx+PWLXRtGqU8D0mvMHH3zQn05Uv2TJkizfVfMWLlzo8Wp3U0ffEJwyZUrfBQsWaInVOJVF/i3Tpk1bAkASLsXV8Ir6wPr6+lrRFQ7xwdWYfmC3FPH1TB76GLe61FvcMzymVJORAPe6WwoO7eQROBnKtW5ncamRUUaKl96iXJdLs4dxwLUX6lkib3LpHLMgzc/R8a/FryX88Vz6fmqPOzb+HwhfE+LV0a4H6vsMludbeoLJ/v37L2Rc/gW09VJFxMHbKMbwA7Hc3Vipc8m6pYANbPHGsVRY1xNjmGg6ZWxA34y374SM94Xtasxbkw9Nb/Me5tKJ+zr2wugpEjWBqDITUohsJuO5AsrPn2lEgsk5fSycB5jpNb5mVERJU/kQTeETDZV3+ATD0Xh9uiaSm8eSUkZyoITlwaGiiTifBEflelW5XwYlR2+4HEZdN+fV62bMzBn87IoVK54EdhOXapDP1SxduvQLfHdyd+RtnkxVlvDHnEn1W97OeTdfoTiMvJtjSTmaJ6vVoNsmHAwwTXxCR8rq3fH8PRzXppBuTUZl5F/3QBNJRRz32cx36mup61gC8cm04xJVk+Nj7vHr3eGGtwgfp7yuLjsdCYEM1wGBmS6ESAoJvF3HhP+7LiO2BVEc/h/BqlDAqNex1DXH+iVLE/CHOIfwie7WtyvldYbkVltt9Tjj9APwsVu474s33HfttoT3uoK/s2W6pYChNPCRoZ43eWr81OZ9ufX4/NHRe9R6h2yf8e59tsX708MZb85c/xuUJgN5o8pKSCGy43A0XTqOlCGV5kd5nGfDgRKlLGKGzCYpb7rKh2iaMiGeFJcTjRjdXL4MKTJDiESlK9j5ZygR7NBx2oi3YYe5eiADHWkkZL/KRtOxthOZgY3wQQxKHoPbjfnYIq0WGR9F2mHgCLKAR8stg3mKu4iBd36QkCeASXtj8p5Lpz0SX4OLyQVe3f2BXFWjgIk32PoInl7mWkTYKJ2Ee9pJE5Lipf1pE33RlZ8laK2gjSyGkhl5y0+xSxTUjuq5ZKXtyfu1nPvC6YztygPhaneS10L4vo7N3tf2JLOy0nO0gtp4+0BDRG2dqw9jUX/GKdZuuuZGjRrVh5JqJz3uqIvG1AlxRqyy+Tj9rkfO3HL8rLnmmouxgv2E+G4O5nx4HM3D9EmcS3g5R+NoFaSsrlsKGEt8qzGma2KuGqfN+/oWZXNLm7crZyJvPKzem/rHZnPKfnC6PnkCZUacF1OIbOV8vUpjIc4UNrpOu+VKOEky86+fuTQlTPhEw/GkuJxBhocffikgyrefrvJG5XN8mTI+mgR/xeUGCeJLDBWD6wM8XT7BQDZWA5qcfDr6MCbYrzAg3Mbgxi7BqAPWgvXqZ+TZnxQNYMZJkcJ9HUXsX/j3GmCBHzrrrnTaL+bZSzQP+r8sUKxHwPAjuk+gLJ75xBNPzO4RJooQ5ZV1nRd0i7uHRbJ2O8lutL2PtrEXNP1G022sySOgbepohT3wz8FfqxKyyVOLFcBupb9oYk1dKoFiEpCSeTJ9asN4W7XxB1hZeKwYgnKnyQqGgvUwKx930Ke0VBqQpJ8pfAafTboBv7oVMGZ9VByvPsS/mO9Rpzlm+fJWb8WKNq9fv1pvyxGe96Oj67wLbmrxPvzEvikpDpG51VdM2FfCpOyYSao9XffGgQj7ybaw0JBmhu94HgmFzKa4+SlAE+RBeYvWorJ84Vkkbj+aaMrllmtHYMibTCZrUj/ipBqdLCh/oPOMpUNNtp3I8Alc+yJO5sr3BldWgwGTsDZefpFLg4dx4NEnM07k/Jw3OT9ntgVHPJS38XTeo6AhS1o4TRt2/8Ym05fDwGoIw2cN9aqK87/C8tBJ+MS79UAYxldqGKVCy9RV7VBM9eAjJagnXdA3Qkw4i5waf6QDhPJ0FMywD7N2/vz5Dpc3ZsyY1m6+iaYR0g2j1WzdNLJhrOiq7DqSbcXTGUuPg+hmccKMp3ooluJV8bO24rwojnVr6bhx434gBSyeDmwgD9THsK/35yyVyupbNhc0+q5QQKaD0TFcQ+8KisTLSEFqbGr1lja2eH361LLhjw/ubZjxfnJinbf9mIw5yDUYKmj2Qcu3gchE6tKDTL4y5M+1roDFEctjKmYnZZPk0vGDudomYISOwAR2V8CgKWcKWIIxukr3ibqAH7dFEhJ07Z4XZXdKCFeiaJhIHwXhf8P3T2EGt6HAj2YSG12IIJ//+D5pkTdfpMRhATuC8ruQlq+NS5HZn866l/LG3Fucl3R+DJZGUwl0SQK043ztr0u4kizEEv036VeHMpFtqiW2ruDefvvth7EcdD2bo5dzTICuzzgQc2pXcKmMPvrMQ9MEFIFvYhU/ElCX+Ooq/c6WY3zRdof3Gb8aO1u2GvNTn+O41gmPw+KTuN58/EtPfvg6Jq8sbe5teLo5BtdLApo3vsMYrv16ZXXdUsDKylkXkWsubGnmB8VDS45O/9Dnjs7+Yp2305YoYVphcgn4LugCkcbj0pUpyEjQhC0ALxwV60r3YX5A4UDxiqQrt1xUCfNhDoeLCYfBahNi6SJlkhXwy7hoO4aVN0THuRn5/EtPW85ZeW1M2qkOFvf5YO17dLirgDeF09QRwfVtJhlZ0SKOwX1vAEcrj3PgUHABZa6ZPn06xwVXn4NHnYBvd0xWD388kbbAl1n7rR6uqoMT3bPq4CTgIkP735l2fjn37M8sac9gf9MC+sndKD6XYhk+gEtv+3XomOQ2AU+4H3GmZNtp4Fmvo8JYzurgY3Pofo38N3K9ypvPH/HgpH1GOjT6WPgY1hGeCqZrOLYjcztV6v9ePnh7jm6H9EJS2fsW9+F42sOoOLfUT0rNnaQV3c4RL1fuOG/IN2HputiO2xFywHR47fd22GGHtSMJCUfqEsbXo+g0/y1d1uIta2z1+mL9crqKmNLesDUHZ7xzvlTnXcIxLo9Mz5rT9o1tg7TocqQUGawnStScmiddOA1+rMeRpUHy+vNwuJwQECdBZXLSTZrBSDrYLE1B5AxvQR7RNZYdi9N6kXTRAGArZZJC6T7Wle+XDfMzGARuo7PvQQfSl+5NJQn3J7w/T+x/I89D+WpOZ7uSzqg9Lptz6Q4YOTN4bA2+z48dO/YNFLWlgvOEvRrw/cG7GWkCGWfpvQSsRzf8On7ivuVVex4+z2TVzng8Y8/EJfPI50rKwQb3cQBvQB2GDNbj/vkNpByEksOppcex8KpP7CSHtZuY6C/6hI6sS87CNAT+9Gq/9qt9S+jpi3r78GmuZ+gvr6AEPE4filiaSaNqprupiHNsa8kOJ/KhA8hH2dIez/HQ3oLoTosXL96csurnpu0AEy8GmXByyUqdg5w83XLUS33oWK6+0FA/0pvTBDOPYMm6JB9ylljFxy5c7U+H+TImDIMvYfwCMhtJn+dwJiOf/vB6A2l/h99lSZEE39fBtbalGaDVuAO9u6H1agCsjkCWt+Df4tigv8HO4WGWVAd4Pn7ZsmW/Bx5ps+F83Q2vVAqY3gZYzt4vbcBffYi2lESd2uIaAzPeuV+u825er9W74T9tXl+9N6KuQZppqoTNsIyvpUEpMU4hMt1c2U3GUDkATgkTLtERygCvcCpuEoooYaaMLGGWpuJyPhsBXwbkNxCTZuKiIb4MIUdKBQWL7UVTgZXU0XHuouPsyIB/nN1MjzxNZ9oQ+Hep9kP5qq61fgaoy0n7FfmCyU5lub7Jhk3tXzBlwb0fsC+F8VBG+T4AdgUDDa+BVK1Tn1+p+n1nJM1ENJT7dCNlGvE7U7Qn80qxqIo33GJCiAvQKWSGV+SrvWs6N+vzhFs5YylLH5sD7En60DSuv9NH81lmsqTVTp48eXO2B2hi3Jny48AjhUf7LdV+RaOoMkNessZZpFQ3HEum/VAkD4S/Q1AsAksycfGkSSevAoa1ru2f//ynU1YDDuAxCJcxoPuwPpcRBjQ5Oiqr7yK+BuzpJOiilB4DzpGqT1jm0NAS6x3QMGNnErSSxKFzGmmTZ4Lz81wDw7ipSy3W3WOwor7NXmG9PZ64W2kGYrXjZk7Bb2Tvl5p0Q4M2/eXKS6DVUMKO3r3OG9Cn1bvqn63GEhb0AzJI0WpXZkIKkQqTZr32gMrwZ3CYwjbJZVS6cIodMWUaqY0LGEkXjRBNlZFzefCNEx/gCjpwON0QCkj5AahH62XxrGQeys+HdKg76PT7IJthbjBQZyI8kYHiSPYh3Jyv2pS9kadsKVZ7cZm+ofJM2usz2B6K5etFwjoOQAPwUD3ZOUc+PV3eA47bHKwKfNsSqoCTKmEBJcBM2rQP3cfUdVECtP1SlUL1I9OXNFbRT/Tilr7Fty043gGWd5MzaTXco4PJq++WymKTo7wAL+gsrTrwJNoHsJLvANGtLeFwvZYAK6TMZG6//fYNpYyEnXgE30wmeR2FUk4XIawxDbcz8t0YvxDPJfPDeKsVhvMosKbFHZRVnHrfwZjbofVrxx13HMSS9Fncs1HIJhhcwZEBh/ZrXcz4mpjFzjEJzveow3XEtU0laGfwoSzH4v8JvywKWOTGiFpvdepl2ny/bFmrV1dX4zUwzvrtLLdGgg9k+D1sp1rvlANqzBliOjU/cFJmFDE/fiDAJZhLj+Sxek4oMYJDZQxA5f1ATrrwydmEIL8PNXCHwvHmN3gLxbNFXQlHykdq03PwBrlXmsA91OQmlCVVyBeJX2m9xn+6PTMnb2VJ/ykJizU4OufL2DuJQUAH930Z+CEWZrLYgVWTydWuTJX4Wr5qr0iVMNVJNhZ/9tln5h52stzKnl331ViaeqCiWSbKGdB9SH1Ml/qArnC/ifPl+gx5aggP4uqDAlLs3vYHxyCuYFKM43Rx0XU8yEe5WMjEKUvbZy5PEj44t4OWFMg4uveAPRQH2rju1fACac1Y1HKQFcibGNiOjZM5lHT1BJCeDg5Z2CJONJDJv7imRRLyRKawn6+xsXFX8p6NfA8hy2HuIq7wlryg0WE7yIO6FJC+lalx32wxCRcA3ofr2zrvMQxPKrzyKGDUZDn7DJuWt3j1dXw9mquYU/8Z0Je7vCNHVBxV6/XFeFxQCTPdwyxFtaMEJrBNCuB+v7SJBdOVYEpGy7cXCxCbbMrqZze+CzpYQFNcWBxBOUvKL2MTLUzZV0anpyQ6sr75pb0n4Yag8Jas+Z9VqN7sEbuPDn8b5YMN+YQ1sWj5YyrXN7m0R8WgIKwNpnqCvZWnvKcK4e0JOLz9GroLw5Ok+C3kkJWZTF3+nvYtrxfq7bhCPHcWzn0DrdkfZJSF3hqm3nqr7OHO1j+p/C+//PJ8cH2VPqbDj4/guoDr/+DJWDrsvStGTo+8ficqkAt8yhN+NI7n1FKlYIuh+yjZf8P1beJ7wtd2wH7CWJCYdQkrST312oKrL7gDXlRX4nNRSu8PgKEAb4iSJbNRCBQOvsX2hsYwIOmw+Is78Q98FyzCskh22WlJlsLa+yVlOXCiKSUYX5/10VJnUYfytSYZvkV+KVlayg0u7nE99/XXw4YNS9z65ZjSV0+g/QfikSVxvwl6h7IUvo3Lm6RvTKhJIuwJXGpfy5e3GeuXbrxWGXKbXC5n6kODaD57bVPrDeiX8X785xaOr+Bxy+nZpLcvHVIepLbh+sjUBwWTZ8NKEN5gE7zi5MlNDzJGy1PWoFIFTMAsbvr1MXEfnssXcIhE9qL5IODhMiIghvAIKsn/UWDlcYMHD36GTbo3UKMJsVppnf94BtPfMzC8E0szUTrb+SwLbE9b+pwbaK2/lTI4mMJqb8SfRln5X8WryfFG2JN8m1Ln3GwNnw3wqRZ0CuHN8tRBG6bvYMB5Vnl7uh7iFV5exnuWc9iCvTbd5YvBfAVWFy0naMkoMSd+kZv4NF3KIlbYjSZJ0dJS+nxoXYPC/3JSSLuApy3Uf6bLgvHee+/VDho0aBJ95wvcu6/C47rw2gXUpRUBv14EeITcd0Hn9pEjR77B+WEiWExpKw15/lw7QWcMZINUheFhKf5jvMkri3OO0wZ83IY5CQCAf0r5xNp3nAb4NT49CXwsl5Ql46Ap2tsSGc8lGXbJYb37BgWHxQtLMUYB+yu0S7J+cRTJZMrsSf44Ksl3Gori4908Gy4HbxxAXX7KCzoHwcMG4TTJkPH9KOaMF2jzM8Np3Q2vNApYI4evNja1mKXHPg2YPkuUjN6O7IMhf+cta7yzjqjz/vdvLd5nGCLrGTZNPyM9V9mJ7r0yygz0jJIluvRPo9w4rcvhEFO27/rpxG3AJOVNVxkpYdbBTJgvQR0ZZTLqmjJYXMazYcF0QscKrP6tbI3Qw6PqjrgCviyVXu/ptGM6zP10prvoPF9gMAjXSR3sfK4Tw0AXfvHFF99n4+Xf6Ph6ItNSiUtqH3mBqGOSZx7B25566qkFLlO1+JIBvDzOU+oL+ig58jib+Bpx/mz9/oZick6/fv2W82aQMSvE81U67t46TZIuA/08BvMDaRORBtEdGrSBVtqCJje96GEmf2Bt0NDnnj7hirSb7tASLvA2gX5Wd/AkWZa9keOR605YljWhj4C3tfH1VmSSZHJwCT/y1sPEECbvfWfNmjWdPZwPE38SS/acnALdB+wIitF56iXryaOF0OuQWay4E0mPtAPKaPx4CQtYztJXIVxdgUNHb6Kq348K8yAliT4/njeD146/nVoKHcYT7c07FdyRBzbVC7x6wPknXyn5sCNcn3766Tq06ZO5pCxGslseL+YlqUQfmCJEbAQZzKJO1xA9l4v1Md9xjxQ4FN7+ip8qYL5Yor+NHD3RxB6wgQPqvboi+7+ipfyYlDC2jXlTxtWwfFnnXXNXqzeb70fWADffsMfPq4SpP6lLqc3gWy8IqC35b7r7iQZHkIlsNsy7OgaBGaZNGZ+v9nQfvw/1y0nHMgTlEQ6UMMUpqE7gGDLY+VnCQs4YVI/Pj894G9AdF9Ck73/F816YTf2dwkn5lcXJ9E2HupbBYBfkIcuXc1I5DyHtavI854Bhn073E8rsAWz7MDxP+GGemn6XB141IClfnOo8FjnoUz96CzDgTQMcdb0f+FVYmhLdLxMQqaKAtVJ0e+NxvEq83KGjLb7LZSYK5KlN5B8xAR0Zz9vb4+yH0WbrHWg3O+DLIrQBvvYAraP2RDhnIg3XWXmQzQBgkYk7nIfJWK8w9pMcO8C3Dnl0qR3vgP8FrrkoYrPxX+R6guWtgtapMM0Owhpxt4L3AdAJsoJf4Teh8XAAzB+QAhZxKguuN3ggKOsSJPJbDq1H8deCgdUcE5Ir8PHQ3wKYHiQ75Sh7PDiGxwvZNvBn4M/E0+LxqVOn1txxxx0TwfX5sFxtPlnBnwLfQ8TbhR5Hkmz8Sng5jnptEkarOsHLSfTzV5K0PFfFk264op0Nq/3r6IkmLGBtaFLa+1XXwf6vfDQCJWxsjfe9w+u8TYfROZinsu62K+wK2oCxSzlgALP5XBw/sF+ZMHGl2XT5flABG/I9n5rACgUwP2CzFsgjVLYAnuqxFOVrd1b7T9wj4x3Ac+rOn/O8/VnV3gfD9DC2YXJyR4iGj3Zl+GU58TE61F/0dBVz2nPwY66cBOVDMdMm3t8ix48oL1DE2UHmDdJvlIITSayyCJ/50ac1plIPfTop4M4OKq8DuDLJQSUgsIoEUG4HU9WtmMgmItPd7TUFeX9hZREB7cY0HJSvcShPf6JvXEbdvkW/0hvB21DXdVRX4O1jj628+g95GJfNgksL5Z8C3e+BPwksnxKmDqfrdvD9nrwz1H91CY/wOSe2dIkuro60jcmj5Sy9LPN9rl9hYbqUMwClfHTZodDtBO7NwgjEB3QXAnsCxb6ghYYHtKHkyVmms7y/Yy3VYdSJhuFTG8lvBenH4tk5KzPdOy1DdsZlaPObwv93KNSOUBHwc38bofd3xtAOrV8czbEBZY4nfw594FLCy/LmYw4xC9C4T/APXI2qi3OSFfHdie/LgzvrRsm43Fong7diWCQjHb4q65faQl1tpugbkMUYk6Kia+LojHf6wXXeaD5hpFPzg835pGkY4j9QVqRc+UNTOyxINhl9eFgJy58uKM4iC3AaWIhmmLgpYH9ifPnQrHnDU9vQj9rJ807YPeNtN9K3di1jt4JkJ0vY2kwfbdSzEOowmd4WlmmdjnMDg8Kb4Q5l67EHA+u+hNt7WqiC5P8T0UcYBJwaHqSCrw34XVg47gyAVRpg+eMMWNuHK1A2JQtNHvi/YtC5rUpZ7xVsoUSo6zRrkHYXbUO8By9y9IqKlMAk9doIRUhHvJhDUGP1DTCofTmliTIf01/u5mHocuBfI9PppF1pz1bSxnYzcTuf9AwPDLN5KHiM8A8pfxrxk8BxNfSkvC3VhK1LZcKONHMP5JO2Onm0af7zKMc8Znbdwe9ulB4pvM5Z2m8TF595nf1Ek2SVk05d5gKvxBcz6tjfpCXSd+NM6B5Rp3E8pDETlOx0f/ag3W/MleEyyrV84aNOsn69UAI2smZkGdxP7SjmNL4+u2jRonti8LJHaTNXQnuW2le4bijSals6k254UkyYR5KkkPUUniaWH/XxbVm+dPyElOnolp/SOVP/Wt7MutPm0uTrvL883Oo980abUWS0TGcceaLLflLC2vdmRaZz9Vf1PZXhz/RDU9hXeIKlQ4dTBMQEGY2nuCuPb7qxwRmiqTxyDofScVKyNuG5dN+tsXZtm/GG9GeWkKJl05VHH6hobrUA+IrWSzl6v6PDLKCjI40cpydmWcKshKPpKCbNKGhLyBNNUAF/bVmDZ0iaOdl6HMDT2n4wcSL89kcOcX4WMKCsRx59UFx7mKrSwbfOAZrFhP0gDNJiu+eo7zbg1Onyf+UeL+setlWrNHJryTNZqj8EF5OzZtMZ5HuB/K9zvUH8NV6MeQNrT0QplaJFvv8jXdYFGQQ+BdfN7OF6h3CW+yNf1/3cNy2fb05bGEGZMYQ3I+8E4huJPvHgIn843Ijy1uV2Iwsy9CZBI7wfVCTkXoPuND+Y+0s96tgbpzcyI4mW36eZ1CPyiGRKLpJZbbXV2Ka3RHvBdIxG5KBpyGyJlVBWsPtLJKkXTp7j3n0PfMHgyH2QxUpHOtw9YsSI+fTXoujYOjic/P+jcsg3nlewS3RQajyh3HHt58Vieg5NZlPqqa9zmJvHA4Tefn8dfj9LioderYBpXtTZX275sR/HhDRoA360rXdJVk1M1ztukfGGDqn1rv+P5z38sk7Y961HBiE0ospKSCESfXizXoS+eAvekHR5XEZ8E1ST9jP68XA6aUp2CYHiF6IifUrDzTabeN7B23nertRD38VcAf9hJzwffJL13vsE0wjpBulKpoQxaKN2GuvPFnQeVdI5RWbSmTTo5PR+ZUL52pYOqDcIzT4UwZxTxwTfjuwJGM2Tupbxqs7xIsEmDB4XwNiGsbqbyQn4WtRDFgnVper4DzGkwfgd7uWtTU1Nvyi23BMqkzfIoL8DCZdSb03em4PzR2VUwhIXqu4p92okbe7evBWsIBD5GaVLJLk/8+BrBsGZwF8l/AqW15emTZv2QTGWtFl+p512OpX7uj041A4XAns4Xxnu08fAH9ElyxLfnxwBra0ptzkwvbG8Kf35c1hhjKJEPB+aTsNQTnaj0Gbhgqo7dPX24/PcCx7Z8zuUr1ry7BvnReW5HuOll6X5SyYLRXnQJ5v+CdZDuUY57NRBwXFcbEwpXQGjzk+RX1de15HypULcK1m/DrA8hPGIqRdJvyMMrGA4QxusCO1erYDJ0rVkKcuP7P+SMqYDWGUFS6jfGUvYGJYhv7aPb/p6aLpvCWtwUqN/F1XCaDHRdL8Jib+CSpjKmPT2gIaR/JYyPyGshLWgZPXr43k7oHQdPIlHG/gXvpbY859kp7c93/gw481fmPX6NYDLODJbJUxKnuTamx2D3JYMPF/PUwc9rf0vA8W7edIMiLJaulP5Qll2JUEKzPcLZegpOIqFzs45B/oaWAu5QdRxUKHEaoLD55rUZ2smrHvgq+DAX4jnKVOm1HEsyWTu5cVM0Dtr0Cf8ffA28xbYJd154xK8bSxxRXqYbTP1SSno4l9vGsL3N6jjptzfASgkFV86Rl76hI32+VBFY9mahS9Ll/ZDTgf+amdkST36s4Fdm8BlxdIj4lAefFawtP9EoXspuD2SYCZBXZ72eMEXu1y9LZCRjovR24ojwbkB4UEsJZlHTMKdduBQPx8WLghM7UfWr6IbzeFF343dPlxWYZXHgvQoFsGKKGDwUU97eRR5a7wLFDDxQn+o476NHz169KDXX399sWDlduoXyO5ryCbf919bkM//FlNsy8xfwQE/abpOlUgab0XwycqjvV/uMGVenDFKWJLEl2IJ2xwl5ri9a73+fT3vgRfbvIV0GR3fYBy3KlCyBEBT8hUoq7mE00PKjO4wXdgWxvOLCmhcV5QwWeiGsZK/21YZ79BJGW+tIf7+tXz6g46eeIEtkm98wIsLIZqiH+ELxowSJgZ7mcPasRqd/GA6+eYMQGHuVZsn6eQ3hIHhMAPEFyi7O3nq8MNJJiwYePuAd1/y3s5gUXAZIqdwBQDwfQxkvgSf3OnCLl/dCufuuRTxqf0l+JvyJYMXO7s08cknn6yLknQmE/EuUh6oieuN57IM1MxnUH6GtaZLkw989Ufe6+SRpSwxl7CE9eVCZ0SVKNEa9sLsC40fQkuf8JEcLkTpWMyT+n0l4kgkG3RnQf86kMni9RA8fbrJJps829UzmuhDG4PnOu6LOZuOsJS7R5DZnp2RGXKYD08P2MvDUjge3mQd0wPUIpS8hV0RgB5kKLctfPaX3MMOvDNQogo+DEhp5isO21FWD0PhoqpjE/fyTYC5g0skZzIR6Ln2/gh8a+N9cEyIZI4bPWDAgO3w70+GYlEsevjdG7nsHZcLpcTMDMbTW4piWEkSe60CJqVAnx1ajvULlcfcNVm/6nnQ8dtTMndIrVZK2BYbZbyT96s1+6huf7zNWI/6SHrKQJMxSphIqvkAU6OmkQvSnm7THMyfAmxhZSN7YOlSnCRf+fEDprj5sTjxlK4t4s0sU2/Gm5sHT8yw50sbYHOtXmQPnNC89n7We3ueXVYN4xUfoUoZPlTSVidAUuUBBrgdYfFYO8AE3HJfltDxp/KUnXfpgMFfh5Z+iwKRSdXdT4fPDh7ai3IieR/jkhR73KEQauI5H34j1i3Hf0cMuvrly1cqDpXtLp54ecW5+mywwQYZFLB87BWEsRxWzySkT1EpT9CSFadOU1kCa2WyvRIrQVcm6s3Bc0Ae4pq8D4H28fi/yZNeCqgGi5COVvh/tOfx1MGUIb4l15UoGidgxVXbK6uDlpEZE+PLEDpBxJDXJOq9D0uBOtJlBeH/chjqY51Rxminq6MYb8YSmRuBhHoyMtsQf6YiXXHIRJvAdXXLUe29qFdkCV+igO/lKBDPF7P2ofT3oW77UD7Cgy1/L37e8SeSOfnI30B5ILSDN6Itf2OAVUQBo62wK9n7Urxqkgu8NAL/BZesoSu967UKGFZwb8myZrP5ntV0htSs2YCvN53tGJXYzdPIow3t66yW8Y7ZsxYlz/P+yub8RUszviVMGehjJSth4owy6pf+sGbHHofDRpUtyGM6MQ3Ur2owhaiuOqtswsiMd9QuGW/7zTIeX2Nqf3NTSGJO+70+5ll/5lzPW8QWZH2SyZB0dB0foUrF6cZQVl0U68BwOvTRDJLrMWm5molPvV3zCMoXO/vyOwb/Y0jR2TTB3i87OOgpu4Fw8PQI/hoG4ykoPYcxOWlw61Enqx8M/Ageh4cZsfzrNfSCVh7kIjnJYrY6l45WiDiLQ4dOFh0cLR6NLWtxRTb3WxzLyYP9lebsd4AIHUVIV68aoXDYIeuoKSGcWCSM8vIRRa/iGs4t2yCMRtWGjwu5WpHf1Z05Dw1lfQ3wHY4FZyTWkHA7C3NzGUrUG7S5zloXMlb5utAqXxH88KtlnCMgVHYFLFwZhdm3tTpWpVvhyyzN6T5S//1nzpz5bZTC2cQ7nFvol03wrw/dC6Xut3NqX9tw5EWX7rXaDi4Lf59Nnz5dL8p02YFrdwrzKlO7U11x00krquAhG9YgvN3I1164PXQP6Yy+lXU8YExHAZoDT+MdZfEHL/24fxNZjh9QTKl0ZbrjIz+dy7hjuA8Kn5XTm/D4x+7g701lO+wk1VoZKR46fLXFnBHhW760zJ+/rSdTC70dufrAjPflXVHCmKb++kib9ynTmcJm+KCf5VXClKg+mzedJNOf7dhq8yivm5tMnQwKP1E0BNM1uL8222e8Mw7MeGvAW1MJz1RSIGe8m/VmY/0y+9nAI/6MZ8OGV4FlkjNzoZ8OqFc4OvjudPAjbKc2EraMz2HgP7dQJXSmE+nfopyWL4NsCjPRXg/OdQl/1SVoEIHWcGCncOL8/ZwJxisNPeMYWPVK/zehHrHGANPgprN59K28lwjrNPUcJsnXQpo2M59AeDB+JA/x2QCmkqan1GJOE+s+ZPgiebX5N8hrww8B+J2ApIfvjcmH/CVrbcj+k7IYYDd/7Fltf0ZR1nERV0B2vThfwH6MXNr4QPFvS524Wb48GNa+Jp5xhXgdDO5rUKb2RQl7q9SqkH8/ymnP2ljwS4gBfsv7NPw/lIqvE/nab1j+Qhm+e7gNSevaertcWto6H570dm1uA3O5rE9eCW0d9aGYUzv+OrgPBx7UOZanwyj35jn68x85Rf29DjMXyEBdtqctBm8NKhu8qT9N52iHggqYlh/ZG7g19+5zMRkZSijsT9AmK/EGZE7N4P0prl2o1+r4Jl33gHqNga+9Afwjp1BCANr0tqA6JI7OylRfjriKNNOZ4nlWxnivVMA0ZC9a3Gw+vu36p77/2I19liXfW71JuBqKztF71vGGZKv3u7tbvbmfxZQwsJlpxQ6ZZoEUJcbBrD4TLDeaPmCGGZ7ENd64cvgGrB/CKkfX9w+HBdn6a2S83cdlvJP24umTMSz+lmOxSr0w2/Pe5rR//2gNS1NkRMPSV3nxZpQwn5NeYRfWEhwd+SsMMLJOqRoaXIwSAvwWLBwFB04Gy/PIM9IUsj+gUdmHwXUtvt4c3BqYPkIczjaOZZQTAFweBlYyDO9TGPCn5qMJz9fAs146WJQvXTAtvWL925J8G8fqpvp/CvyHWPluKlTewaXE8jR9KjQjp+7be/AsuC4rxRqEQikFLEmXlZUS66hMJL+mPmvDS4BfdQZ2KW+9tWHh+d2jjz5a1HoCfztR+ETK5OwPCpDaAPRGEfwFsvkaCgG258IOvMLn9nxtxX0NeqSVoQo/QvgUuyRYGFknU6BbA14tnXbk9KjHaBg9zZ6ye4lHXaU67kFQP1tG89IeyLVUFDn5RB+57UM7ZO3C+1lOhhIAKAs672z9eFbwtgF/tpiSzt6vgfTFw+P9yOJ6AxxvEm5vfHEiZYzD+78R+SH4E1z7t/5oYGrTZVPAwC2L4i5xuVj6bzMuXF/Gqlcd6q638B6sivr20sYWs/leYd087f2qr9ckW37G9EahrF77T6r1TjsIRYzFmvj5WuLDsBLwo/0rljfrR9IV4XIdwnXNeB6dSKJxadS6fFV53xrvlH0yRqlbmVUAAEAASURBVPGK6gKFZaDlx/cW+Jd4lgtomkicb6Urk8moHNXutGx4AIOfLGABr7aOM4H/KgDGAgy42stzFODIspnKcl2PaXwmA4Tezvq7xWcwKMzAxesP3pFa+jTACv9Adxh1uwKykYcq+NJ+lWdQDn/CxF9Q+RK7KB6q+wXhuglOXJ8yubUU5Uv5mfR+iRdZehEf4JnL9dsSla9SlACR67Rjw7bu3ylckZPBhUhtBl4vx8LzNS2zFUIueZN2LErC5HA7Awba7HKhCpcFJuVuP+7DmXaZOJwchHW8AvRPJe91XBHlS5nAo157L9c3k1a+hB+a2jcYsQ4KDt1IfQDl1bBUT8mj1Ev58+HqLJ589IQXPDlL6SJYiuM+7Ek+9evAIR+FnyFNe+EKOvoiI7T3P7Z+QT7KKawN5lJge8Qxjj0HH7PjxOFZ8tLRLFo6TdzRZyaAVFbdCG4b18POtVyrjPVLQogM1gL0BqdVR23A13l/nOFmWPaPoKicPikeRHr38TWcoVXn/fTv/ke8jYLk2hdjS9SipIm83RKmIUzDT9jipMqo05o26pu8gjzK27eBQ1s2zqB81Xqj1vP3pqlMqU5Ljs+/nfXmzENplbgMA46mZTyH7yBbqWR6LB+Dx64QPyg88KmDE9dkew0WoHcLMKfDPn9APu1bCpwGXAb3GwE84IDA/g5sEv4XNPA7R9lNGcS+TfwMB6uEbwfMH1M/LR8GJG29dQjt9w855JAP+ch4kBYPsG9nF8qeQt74a+GyFj3NJvVT4mXyxeHlBOCy3uR7e/QvHMZ5fb5ylYZJCUPhlrB+xxVRtHRPubf/S51rsFj9Jq64ylJI+tcod0weeesg0X+TphPYx4XThZclnu9h/ZjNXpsb8+y1ybCh/XuU1fEYQ2zbcqMJYK8Z+J8HDhx4EscXlGX5Cn4HQGdtEQs5TYofh+LqT7J+VW7ADRMvPay2295BSy9nclJWY4neZI2XfII3Bp+NA11c+6gI6y2/nLcfLa4bUIIqvv/L8Wf952hfslYG+1nV3oiPwFe974jl73YUeYjerrZdx/HNQia/jQOTiE9hOZgXItbgAXMg9CM3k77YBF3tR+0RV+0dKEcoUnq0/CjlC2GadElU1q8kzwDLIZwHIGVLLOzGR7x/fGydt7GeeYBF+qviKmt+/ECQLlhOuvI4HH6i8iurTrLfb0KNd/FXar0RbAstZb+XQRb7mT7Ht4AF24CEHOcPDi7i0zSEBeIK+Da5q+/HDnxfZJLbJtzJVS/ayotsyi3YwVEc9qJG2nOCitvuwLOC2C100nccFCXuFcJ3khYM7pbGAPwvMrFPdnnL7Vtl4FAGt6+KhzzugkGDBj0+derUgNd4HpSvDanK18GxXahKLttsAueUciQAysoY8v4APJG3R4lLib2De/BrFAdN3FXhsMTdisykSLGJIOokB/i9jAF6q2iKsRQeC+w00nUydpBMWJEnUNyOwz/VxoN0BcAnvFfxdtxBtDl6dLsjfjYxKV/B3pz2VLPcdzM4Ty6X8iVa4O+DF7cayQI6I8RLlnrMIo4t3VP/kDVH91V+Z69CFg/BO4vL5ddeRt2LBXgf4Xfa0Sf2pOywcEFkIPk04T/DPVgSTguHmei1af9rPgvhFBN+ir1pH+RAKwzASn0fJF9TnWJOh9nK8peos9avveP0rEyl3P+eqyxjw9KlSzdC5r/l4XgmNN52F/fnba77RowYwWtoPeN6nwWM9rJ4iVPAfKHp+4+ygKkptQ+HlRGoG3/Hj6rxfviVeu+Cm5q9OXaHR9C2YSqwhIktlHCVCxpjOD3UH/w8qlHG22DNjPelXWq8AzhmQtN+/GDVUmqrZdOX38l673wsgn4JHzthGzD1gT+3F018ywVslaWL+DS6+4vi9RVwfFmTnHO2g88hfnURJQLJeGfTGSPLXlZx+BkdV8uOEQetO1hO2pa0453SYgfcodCUBexLkQJlikB/Nehrj0t7pX1aerj6F7L4v44mbMqfRF2PyiM3TbBXoXw+6qMs/MsLCP3YlHwNOSL7xyR/8M/Bv4Els9cLY+iZFJSwf6Awqy/eAAeRpRfkcQf3OTJZsr/wcO7zd5HXWu6+i3PVE/iLwL6ndoY8nmUZ8yzgl8drpnYC/E9cXyHfrXpBAOXrPPKdCSzy8octqz1Hf0C+p2E1K7flZCh11h4+Qxq6qpeU94WWF+NhQfwAJeVL1Fd9bihXMESE8xULg7cV/Gtz7SSZhJxOeX0M+CchWMlBymofmxSlf9J2/1BywVBG6rUr0f7gEmPu4UUvhjwB3oLtWEvIHJGyNQq2XpwIYfSDlL8SBU2KYo86rOFP0+7fgIlJXIZRVZW6SSfQWXt9OnvWXrEKMU7tR/qUcJ8J5Z9J+DeheKJBaGrrxWvcj4Pi9Knv6DXWWOM7s2fPvpQ87j4nSr8Ysl6lgKmHL+ebjzp8VUqIFBx1j4YGbcDvdP8vJpdOpamHSiEatV7Gu/jYeu8HNzR77873eTNc6YdMdkXRhDVc2Qbv03LpQmarorppy8HETTPeCRwEO2Yj/zuVfoHO/2rD/bM0de0BM9Yv0cIFSpajjY+KaCaVsGJm2fILVdkvE9n6TFB7SiGJDXwa5B9h8v97AZYzTKrHci92Jl2KmHGUkbXiffxb9G0wB3e+3qyi3J/p0HuQZ7jupRxhnSG2JxPqEQz+t7j85fLhsYXB/gVoNoVpwIe+f3dqR0cqMAj/D+WOc/w7HMRp0d7D1OGnDlbMRxn9EenjC+T5GXhuK5DW42CrhCGyzPUwMwRfPP2T62TufbA8wT2dxP0+gza2aXggV37k9Q7+z1FMjKXIKlVXAduKtKOFMOysvP+IonMY7UjfptTybz7lS8WuZ9nxDBTppWEcSYepnyxy+tRRHPVyANPjQCzBDwHT1WWHErcDyuw0p/BZRE3AvkuffarLiLtZEBm8zP24DzR6G9hNzAO479fzeaHnCqGfNWvWKHg/L9w+QnkXsAT/Z+6jr92GEnogmIXPv8GnLJ6yuGqc1B4wteUHklS+aFdakdidfmPmPFdXyCk+j/jNjA9lU0rB/THj3C3w8A1oxa27Uta/v+WWW1738ssvF305xvGdpN+7FDDGRS0/tppvvfpikKKgD3DXs7s8d9xIUlQd49KS5PC1M95PT2zwrvpni/fAS7xOTyML9nhJsaEO/EvDMQE1eDVE42y6SSPcgD1mv4k13vF7+QfA6hiMrjqR0FuSL83Jmk8P9W2wNIXQ8UIw4FVgx5vSUQQl31ApgNXjUL6Oh5vDwsqX7eAv0/F+UohTlvA0+JxDeqB8Ka/Kcl1G8DXF8znKaYK4mYHsbEdXMsOtQdmLwH17EatbPpSdhoFfVoLdOl2QAgxKk+HzZPh3ZzEZNKo79XiRJ/WTS8HLAHsw+Y+nXOR1fQ24yP4XyOamUvD0ZB4tRyIP7Rm6ibo8iBXoxPDbiihJE6nLldQpZ5mW/Dp24+8M9JF6El/Gg8HXaZsjqJsU/IijjOQcPBgoHnNa+rsKmj8qtuQVK9OdqCxZG+fjg7q83B3EhcqieNWxPJSTTL17dG6iPfwFpnSV7OwWiH25X8GBuaHCsmJeudZaa+Xc5FCeigZRcLXPK/G9XvFKUO9DgZnPf4XTgKv9v7lgwYJrwvByhHlIfZO2dglj3SX04ziJwbz9fTp7xX5YaeWYabUXOWZ/ffuxhbeypVAYR3PWB7h1DEW1uPXW9LyzvlTn7TZWE5BURJzrdvgu6AJmwHNAfH1SaG0Off3WQbXe6QfWeoP6YSPOaTOdqy0rtN50lK8FGGPdh7cj473ocxk2zI+PPxiMQ7DOUS5/bvYXjIPKbnQu1yqMAkVH0z6Nu7FK5N19ruUCvi14OnlGcEXKUu9nGEj/o0mUtLyOtIXQvBU6T2swCTvKDwP3KWFYNYV1VAS8f4tL3xcMWLOD4kz4n/rYY4/p6bSo+9znPkdr92S+XzNoK0TAKwvio+D7v46scEUJVDCRSfc27ukQrgPDypcsX9RNx1bkKF9WXrdR9jv5WJUljKXII0jLsSDlyy+Yxam2+30myTPjLwEUKtddOO1gfWjr0z0BKsJSSucAaAcGqWkgLAEmeR2Me1a4P4XSP2UP6pWd+UpAqGyvDfLgoiOBdqXvRAZI28bn4v+N5b+I9b4clVUfgtY/uDf59r3J8vfNjz/+WGNZRV31aC0dVFvzm958XKFPD4WGAoX9M8CkTXeApELJ4kNK09koYVNQwqQwGtYcf/jKE4Yph2DLMPZPHJ3xfsRG+wOwfilTEvXS/q+H2Dr+7gJOPdZdt8QNHyZshSN6CoZgNE4/MQSzuavCo3NvDCMbqlPHrmnAryjE5Pz58zUorEkZvfpvykpxwDVy/XD48OEzFSnmeBvqeRQN7V9oVVnhsTj6Eq54hy7GaziNp0EdNrtfcG9JFO/EpXD+A4Xin+H8hcL9+/f/I2kjw+nCw0CnQxUvZ5nq6XBalYfVwqWNBi1dli/iV1OnbcOyUj2svG5DUdeev4KOpY15tIm9ydChEmZxaqnxbBTBgm23ILFuJFCP9amjlkzDWBqJm2XVMDCpMJbGvMtx0MwLT4pu0nh4CBwOzu9wn9eNyU+kWoBrD6qOWlilHLL4Bm068pAnAaidSxnCOnxtpQQCL+9C6wrRzuOGYPE/RS815UkrG6hHzbydqZVEtngpy49h6xcwzZfahC+ZRseNzmBPPq940Sd+zj2yzhs3MuP94tYW9l2JSTU+S4+wWZKUD6iZuh3JKftH7VbLZ4+YCdoNE91iUPQW84wx86OstwTVQkubxomoXXMUv/n4cnYhDSqObVu6mrw7MSHfx9sukWVEOnhzsU3LMjezRPR9BoHzUKKC6jERZXlzcGkpT6vCgYXkD8jn7yg1ERwoZ9o7U3UOpeLL8HsMA1HkFXsNTMDvZeI/uxSm2b9zDjLW0lpkHLGD67lYfv5TCp5qzWOXHX/L5Bk5TkL80kaMhY/6T0VeH3VQhyx66Ee0k32Q77+Rz9hC+UnXNxW/gwL820J5ygWnLhujEPWhLxgStj1gM/fuEcBaM74LfwNNhm7+gL8VmpHDcC3KvsB/wpJwYgoL9/Bl7tkVYctmN9mPFAf3DsjlSPiOwInIgvgu8F8qHE9cmeO0dz10bB+vo9oV8tBDyW15jmKJZ08sTj9dBk/3QPtNeNiU+xXHfT7zyM0AX+fKSYxnTiIeGTiTQFguHGrWS5a0sBTXLhfJTwewGsWmXIS7ibc/SthBk7X5ENX7thaj+QtlWNlppnJ96rLeN3hPZP/JGW/QADKQv72m3WNC1q/HXvO8+bxsbwzBwo2qYLQFETFKGDCAYb6ccmiok1kN1v96SPf4Sbo0HUu747q0Q05LRJTV1WVn6UfeEusysjIX5BDQEZDQp4ZGhQcgBkMNis+RdgmXPwMTKOSYHMdS/rukq7UGziomN4L/jnLvfwuIliGARWNPTZrUQx9bD1PIUscMSsqTpJ1daHk7XMCFaScfjhs37gsoOf8ClveFBXDqCfxQlogfRVkom+XJ8eR87ucowsHJ6A6Ov4xjNR5m4tK5ZJfD3xSuUHK3g2bjdwyLLNI7AIsIPpanM1HR2JMHpOEU+kpnCpaSlweR8cjmdHgOvh0bKreC8A+495Fz1ELpK20QeehBL7KkrcpqrKH/vEjaDZWuvI4A4YH7F/B2VaxfM7eZlxDOZC/ftyulGJr1lkoLobP01N+XsfdrBZpKbCzk9G59HLvnN+AXqpP47cOQetD27Ofi1HztCdN+LlePxhUZb9Tabd6p+yz3tlq/iRcMfMt7UiOP+NL+r0dntHnzFrH86MZOCAQ0QgHDl4vnzVOopim8N0iAyf8C+JwSHnwYd6R8vQ/sN0wUT3ZUjykcbEgZnUm1Rjiv8DCwvsQAq6Mr3gmn9aYwysZp1OG31GdMjG+jfDGRPw5cb+lpibtTjtf/36fAQVwP5ito78ve0LiOiX3PfHnKAaO+m1HfiAIGLzoOAj36lU9I78clfvTQnuQVsVqH6iZ4UnSk0PUHX/x+hsh1LUhfkLVuH2Qz2d67MCLJ70nayV/DwFUhrLZL3SdpTAg7xRkj5gG7kzGi4g+teuDmft3J9XaYL4Xt/fsaPI5QvBKudyhgSGIxCpiUl/D9lLLQ00dQlHKTxKdOsD8QJeynX6/3VhuQNcdWrMBms8+4Zu/oXVZ4o4dJK2vzPl6w3FtKXXlISMTJ4vUe78lp+bFJz2LqD4UULAPPs19NnCjNlVM8db1JAmYURLHQdy4PgfFg0tOACEx39maWvUraj8FHhpVv8wICuIjltmcLpFU9GBldDZPnc20cY9ZZvqR0ncXk8WgsveSolFOsaIdT4EYuvR0XLyuAjry4jmW/bxN2GZwfz9/tOE3gcygRwREUlid9//MBIUchrJF1s7c6Wx+3+SKJaph7sWTJkp3BfYbfhdrRWnps/PBO42JwX7Uc8jiGGke+zCEJ0J7k6QWnPyrQE45jRLT5/+eWlwgLwDM8pJ7KXrBEltkjyPNEEprm82BOEKRlx8WLVxgFLIxW04Y24NdWwREUYb7yhcVrf05cmfS5Gu+8o+q9ketmvSMmN3ufRwEbtoZO3VapjNfIGWefLlphzjvLHZfzYS4O09lfj7+qtx+1h0vzrNWj/KCJmOnXoTFw80pAYKVTMS1HmqQuLfQ55KnfQxLITpw4UXu1jmR8iZw1RVymdy2J/aYU3lBQ9Ebfl7nCykCWQUuK3Pn42vfV6yacyZMnj6Bud8L7V7nW4oo46qVlx0dRin6AovpIJLELEZ0tx3LIdyh6GXLTcRNxLIAyG5F2IXzdwDWSDKYLxjN2Nw7u9cAxNg8PnzJR6n567I1pov5Pa9JK8rI0c+oleJJ0kKPa5xvdlVWofNZuvD8aXiNfflAeaOkgWH339KVQmVUiyEPDFOo/kfpH9AvdU9qQlmL/k+9sxUoJh327uje305fnxGmqneC+RnvfQW/Jx9OTjsvEW/Vuqfnuo2+ZCQ9TGrP8PWDJbVgvpzC0fU0WqckoYQ3ad8XBXH0b8P3/gPSiRc1ev7613pqro7F102n58ck32rzPeK/KjPGmgaGKSZDQNTAFCWtKFdgM8zYQ7AtTOlevejVJdUmdt9VWW63OwCerTmQ/kyY4BqHnGYyuxCozsyNRSQlggPo5+dnZ2O7Ak8FC8i9w/aFSRya0U+9+iOWS4zhI9lQwbZMPm+RE/e6ifhex50vLj4k4lkM+QaaXgUwfKT8buUbeoNNkAExnqx1FnlFM+L+C/p8TIR5CAg3t09ma+oWgJjjb7UPjDbFFyOgM8pxAipbzuu2gqyW6dfF3U11DTsPMQ9BaEIJ1NWhGOnDNhM4fuookXznw7Q/fhfaUvY3yOjVfuZUdhkzURjRWRKpq+9FjHNfxl0hCD0SWLVs2l2OCtBfs5/F2D5/6hudpfJdVe2LLunev6hUwKSwLsQi1aTAK3SjdW3f8RAhc9UHxLSvstqMbvPkcCTGfJUeNe04Rkq83PT/9bAV7x2q9wQPrunwGmI6beI0dJ7NZcddJ/YqrSxhLmAlo+amdthLNxntJ0c9oAoESJnjqep0EmDwvZTCcwmCjJ3PDv8IMMkuJ34TydW9HldK5YShxV1JORxVEsoPnE2AXoxzMiSRUeUQbzxls9SanvlG3QbxekpEmDdJvwAL2E6eMJFktZL8QJexaaEtBuBB648WH40U+cC2d7UjahuTdFn6kiCUma2iMhMYWjqbqTXgx/guurvaAysdQVnXifyLzBu2pCTq7oKjsRtiRki87+9VM1M9S1/CwH85Tchi5ZVEelyDrxCZTrDw7wvtx4M7AY8CLlZ0+yH5Rb3wYCSrSxQDNcyeKTlYbce1JqCQX7rHear0HucwVrCedXhDihZhb6NeyQm8Y5sXez/25txP4hu49xb6jGy7XlXAiHakrhEsto6MZli5rMYpCvIxOwO8Ny49xvjV/ZRjY11gDQwINU/u+wsdrAPIaG1u9zxZKCeOUf+oZm/PiKPPGtfz42Gtt3sJlIeUV2u1KlhjpQAkTZlnrjMksL5kU2DUJINTyO5SMrzAQHsYAGPlwtAZE4Dfh/7EjLqaw6X7RokWnMiDtGx5UVQ6YBtbvjhw58mmWWzpCVXI6x4Bk2WtWcv7OZNTSAp+M+QZljqQ+2yODnDfxVC8GYn10+lIG6V8zabzXGRqdyYtioLPX/oVyMxea3yN8GPRr3MTuZA6bG5Gm+zAWBeBPbO6+qTN08uW1e13GgbM2pgR9DP2HY2V0nMa7MVi3oryV+y71iuPQvrh3nnjiidnxhGqIc3RNP45Y0T2SMhxhiXslTfIh7k3ilsoIoViEhywddyGLYiyl4tGToail8whhZKVx4kGu2yIJPRjZbLPNPmIc0EPl5fH7KH6Bff3222/Xftb55WITm0h1O//D29GbKY51g7UBv9acq1DddcjHndqnzi/TMuPQNfuYozT0kkHYqe4L+fRSzvAUztRB+InX/LO/zBjn0OO7oNPsTH9xwHC68Ju4S+yAYJpcqgR03EC8/+lpuju3O0KbSXpLBhdN6OFT6rWZXP3n3ygWv+rIKiBlBeVrT/DoSTHi7CD1G9L+UsqZaZHCHUSwuERnNpsfmrVMfl2SEU/n9cjkcAbd31P/c+F7B9DmKF9WPjoL6FSOYPhxOZWvsBhQbp5mgvo+sItoBx9IvmFnJzUd8Ls34YtRrn9DnSaF83Q2zDLMGPBFlqaFA5gUI7P/q7M4O5MfGoWMAElumO8MSx3mpf0dCN+HckXy2vgs/J+QUNEBE4uOlm2HRRhqj0QZbYcnGrJtcUfqH7l3kgvteh5t9s/2LeBE6XYVmcYsPg11BXw9BI7I/bIK2QHwvo8+TN5VGh2VK9T4OypXkXS174Xsh4rJJqDdwAFXtT34Ee6AkS4GpPToDDMpYfpSw4JPlnsr+Ni46q2rhW9eLsQK1o+jNgayFBl72CpKVXrpjHez3nsf+29cyhqmFmbPXTUREyefUcIgmJMuPhwVEpWeuo4lwEA0hMlTr/RH1lVUkg6dpXNrZt2KKz5QLWGgWq583XVTeD0eC9Il4BGdwMGXNpPrI+NXo1h0eM7U66+/vhFLQVMpt6YdlAwuDarEXyLtMiwVsuCU7OCtjrfHRoJT36CMKFoh+eTsxxJNeP+Uc3w02ZTseAFhTfZwfZ4C2mu0C3Q3VeEYad0bc0HjLvJdjUVPLydU1PHZptm0n59B/0X4OAVe9xADxA0fzofXDbi+DnArlMoHCd+J/vaYydSJH8qNQQ6bh4tAYwXxl1HO01duwoIhzFL8BtyXI5Db8HD7Ia57pH5wR1eOJ4mRyYnqQYhP9uwIzcNsYnw41l5B01bihSnTTD+N549nSyJ+OkiGuTYaQ6ip5Iu0VY2Levjsccc9y86dO1eWw9XzMUPfk1X4hIEDBz5J+pv58nQXVtUKmJSRxsb8y48aj8wRFCgwdmzqrix6pLxTwtZACZMyNv/jJm85n1tSh9altyI/0X4wlDBexCq5rg3c2Xuea+PTRvbsL7vuqF4YKGGERR8yQSCSTiRYrjTSUWrqiknALulcwKC3G/lyJjANTtxXDUCRk5jp7B77VN5ioNQZOd12WK1Og84XuCIWHvjS8o6e+v7bEZHRo0cPgp/vw5uORIhkp/xS4Gd1ZZkIxVCv7n+PwW0dkEaUKSsfHWi5MWlqmYETD9CcxQSXI9cgUyzAst4WKF8/hp6W2YYLf7wuKkKa4AtJ136s61G+Xo2hqlgUxUfnI92KIvYmvJxI+HD4W0+865JzPvAd4FunsO/K3PZf6nlPZxQxym0FjrWcTCgv3B9yPW4IpT8RCdBmj0E2e0eARIDpegb5/TKelkQc5Wsb7tHPsM5uWwif7qH4CDu1a2Cv89CiIzHK5nhBRNa3nah/Q5wHxYGvBS/aClE2HrqCWPLJJzfhEpx0fcdybaKrngK2iCW4+LKcE7KW7+p4xU/3M9bmXJZe44t/WaxWH9JgZpx5KGFNKF6yiiltCZ9g+mxhrbcWS5XR7lW4ikvobs+8ac/+Mtko2R0lzBGurv5TWAA9kDLF3yul8530TbiiHKhzhx1KggapF7FKLQrDuxJmaWofcJ1B2cjJ3FpaYwK5Cf9G6BS1WumbaCxPfZHB8+Q4r+IJ+E+Y6P/dWf4YqMdQRvLJ2U8WxxUeyO3ArQnuw3i+YnFwbMRS64GqQ756WLyqz7+5/oXi9Rvw5Vgui9EoVxqK2HQsLufRNp7lvn0JOvtw74K9YaLr6oQ8tSlcFpIDUNwOoaz2arleq6w5Dtybgjdi/ZI8wCMF7P6cAqs4ALnuhFy+hKwHIWfJ1oyGTmbAr+Ph4B0LLyr7zoiSk9k3gN63pXxxvzpTVP1ditc02kPR/t4ppHky86A2DFp98iQZEHJTuyqUXLVwxg49GJfNYle1FjDdqsXsf8p3zwTr1w+LUC+3foVbneqk3jxEShiD4PwFvhImBbOlJet9xpug/anzgAEdL0VKmXtuZps39zM97evp3ldSsYX4Shh0jC4mIZshxKUrQYwwCCvJpeOboM1LUurySIBvUepNtQuU5CbGPNlyQFYx+isD2NM5iZ0EMKmuw4T9/yi2XrgofGkwns4g+HOUr7nhtHxhzsGZSN7z7eQSZFEcdzdnWF0WAEsM6DgM6nosePeHlxJLqTkapUBPo78cOnRop74PyH2QFelf0I3QFE5dpL+GL2vgr1C+tO+rmlzGKuQ3Mgk/wWRwPPzuC79mWZl6Bbyqveke40uzL2nC4B5oOSiigAkn1xzesvwgQN4DAapR/AmmwjxpHxByOU6y90XsRk4NmVle0s/+l/2CbuN9+43pJp96EOK+fxU0+b4zWRS7bQ/Xw9cbRTMmkEj9NaaUbJlOgGRFUOjBuJz1qqpGHpboihWtZvktDHNhhgjzZqAsRCuTM72WnyGD67111+7n9e+vwy39Gsoi9jF7xKSM+XNg4ZrXo1bf/0KWTzdZ/cri8HG5iK9UhZ+RHS1H1OS02TXcBOmFSSeWwkBXCzI8f6KUTyev2vbK8s9o+DubiX5jCSHMd0dhJsKnKHu59v+obFfdjjvuOIgB4xzo6RDECA9MGrKsXTh48OAZHeFnz9Rm5PkuA/9w5Q3jgs+3AZ1rv6Gp5JLcFKyDvKkli5pe3Y/gDOOPh5WXMsu4fk0d/nL33Xd3ao8cStXb4LgBGTc63BbnbPDdAvPnYLU4javalC/J1fU+j2/TvU5dzkIOOhlfH39/38lRGVU36vgYsJPI91a4rNLzOXBMoNwIpTnZAFvA9ZRglXD0lxpH2/nQlbKzoBL0S6VBvzkW/vZDvnjtfUv3APci1691tEGp+ErNR585GHonia7KhGkXCysvMrwL72fwxSmQ5XVYw2Vx/S80taeqZD6rOa/urWRIG32/XNKrWguYNt8XWn7UsKTlR7/tl0s0PYdXis4gNt3rvMu5XpP5NJHOQdNxHNoPpqXIYu4T3t5/aXbWa5bybrotvoZywsJtLGEmQhxYYOlSNpuPjUOmgNJV1qGJ7tghrQzOvlKts6UWqT+LBL6e6hvpDGKs6hyT35bw9nkUoFLPTtDIrY79CtdFTJrdPcMhw8b29VCajkOxWMLAZuQk+eHUz3+KVevf9jwnooUdJvdtqMtB4bpYPIvxL2U54/nCpfOncPDhJvC1N4PaUPxSZaRzymZz3c+bZz9iIunKEzbk2h5GBn/gOonwHPA9z/U3RH4z3Mpi1GscPN8Psw+i8Os+H0J4HJc2Pj9F/aRIlnRv7JtdQymnurv70Zfwi9z7ewSskFtIe5O1bQi8qLHqfrxEPatJIYatjF7iiLfdWliWcnMr/D6Bn6ib4r9Io31VG3Gv9QAVDMMdENK48hT38VwsqO91kDexZMaLSxh/+iOTXUA6IDHEFUbkN8OMrJozkP2POLV/VrlYqEoFTIrXIpbcCjmNGdqU3hvPACtUpzhcCwkDWW70UMLmzWvylvEyQjNvRepssIFYxrQE64+d0ZJ6TnrklTbz6SGl8zDidK8gYMoxP/OcYmARJUtdnHJGMTMB4iBxuKLUyhMbM2ZM66xZs26mA0zXUwiDjwjpA9CPl3szaVdqpDeUODX5Pfj8OeUbS8Shc7keoD73JfXkzOAnBelXIZlx69QCZBxpvWLatGluoi3Ioury1ltvzQnXxT4JqswCJpprCxYukkA9VzAh3AvemWQrqkg5/vE/pD53Q1NluuxQGD9m/841IJDCocnyT11GVh0F21C0rkOJ+uPqq69+FDLVJvzfUK9OKfE0De17m89lrIrEG8A1neXHir2A0NjY+CYPXCcjVr2Y0WJ50dunptNXg7hpO/3g6y74ews/PDFp/nwHmd1ZDj5RTOvB+4hoWrkUJeP6jcrQFDq9P7Mo8hISOWLiDaznp6CIHUr2EchLLwAxm/QuJ75xus83l9syrsG5y25Zc/YfzNH7gYDJpMtocgrqENKZsxcb5SEnEYAUtJEjBnX6aIZ8uKodpulzOW+Dzp/fZPaBid9BA+u9DdcfkFc+yn/+TS3etBlZc4K+mX7tXQ5utgvgGyVMSMN5IulKxJnPemWb2NW916OX1T/qA9PfVAKpBFIJpBJAAho1E5wFU5muChKouj01UuQW8uFtozjkuQNKl/Urg6knSaUvD6mqAKmOffvUeOus3Ze9YVqF8/ylyE+X55XR/IWe9zwb8FvCh7raYcF67cMEAP8BRQG/usazYWcAMymrgrB9EaS/qQRSCaQS6KwE3KjZ2XJp/lVYAlWngMm6pe8gFnO9+QT8YvUqlKYVOH12SRvzpYRJaVqAAtZkzguLlnp4OmenaUHBalKB3qQ4VzBKBAFgJtye6KIGs8AGoPIuYFLSn1QCqQRSCaQSSCWQSqCLEqgqBUzTe2NTCxtWCk/0egOyQed/VRXnXZR+J4rJoFVfn/GGrdfPW2toX3NK/vsfLovoRMpz7/OyftkVRSPG2PkrwAS2SQEHRZUw5TcFguxpIJVAKoFUAqkEUgmkEuiGBKpKjeE0FfY58e1DtwcpX8VQBPr21Qb8VWMJMiwCKUH69uVQPuK9zlr9ODGfvWEc2ion/UifHXr1HR04aRUsl6D0sAZllSnj2bDJ6gDyuVxUaXJCUXT3tJ8t/U0lkEoglUAqgVQCqQQ6kEBVvQUpC06xtx9VFykFDXoDchXZAxa/f1KCpKDq00Xa9jmPzfmDBtXzWaZa7xGWH3X4gNFf8f03Ga3QAEoJ4+0OH6UEKZg8/ciZPHgG4CcaHDavnyn9TSWQSiCVQCqBVAKpBLorgaqxgEmxWGI+PVS8SvUsP9bprIVV3BklbLU+3gbr9/fmzms0Vq9/TGv1zOqtU6jwXdAFjCXMAeXnzSPh2kw23cZWcamn1U8lkEoglUAqgVQCyUigaixg2ny/GAWsmJOS1oc3Ale2E/CL1blYmpSwQQPqsQbWeE+/utyb9xm5jeGKwyWkMUlPtQqUMXxZmPbRyTzmjGE2aki5cpK1kJhjKhTGGa/0L8j4hdLfVAKpBFIJpBJIJZBKIEcCVWMBa2nlkFEOXw2UghxWfUAfltpW1hPwC1S5INjqV97s+TXeT29jT5xy2h95RomypRVuT/czhtP9xFgelYlksshSL5VAKoFUAqkEUgmkEuiWBKrCAibr15IlLb61pUh1pAz0YwO+LGCrul4gJVSfGrrzyVbvmrtavEX2a1/Bni1pVGizklOg1EqhQmtzVi6pW/ZLP34e0n0LWjiPr4QZHEpPXSqBVAKpBFIJpBJIJdBtCfS4AqaJXQrYIg5fLcXVcx7Wqr4EKeVrPsuNV/+zxbvv+VavmWVBWcPMj1OyFLfaV0dKmAoGeaySFVXULCpjJjOUhD11qQRSCaQSSCWQSiCVQBcl0OMKmCb+Fc1tnO7e2m6pKVAZnX4vBUxKm8qtak7vHuj8s1ffyXqX/bnZe+v9NpSvjFmSlTgCyxYRo0BJQFazChQsA7PpToamoMtqFSyHwyAWHr+MiqculUAqgVQCqQRSCaQS6J4EelwBk/Vr6bIW9ITQEQl56iQ9oI+sX8F6Wp5MKzGorpZvQvKOwn+eaPOuvauZDfdaPvRQvqxmJKWU+neohElG0rHai9mCSiAYvg8ujxBrt6D81KUSSCWQSiCVQCqBVALdlkCPKmDSpVo4N0GfHupwWZHJv1+/uo7zdVsk1YegL5+A/JhvPN50b4v3j0dbvcXLsl4NCpmzBJpzu6zJSzpSRAlT3ChcpBglLfaGJDAlB8qV8hRSwpSvep2qEVcR88GSqEG58CbBW7lwJFLn7bbbbt3W1tYdamtrh4hR2tpirmnPPvvsh+Vi3OJNhP8Yj/lw5oPFipUcTRJXmGg+vPlg4TIFw1tvvfVw7ucOnDHYp40navw6rlfr6uqef/zxxxsLFixPQpfrUR52oli32WabUchqMn1AMjKyIsf0Z5555qlozorECsmqELw7TCWGc8qUKXULFy7cjPa1JQwNYPwQ7g9ramqewi3oDpOVLivGu+yWNWf/wZS3HwjqZY3piluytNmbNWdJh4pVGwTW41uIOoC0Q2WtK4xUYRkpTn3r6Z2z27yr72jxnn+zzVvMcFaP2mxuXOjuGSXLh5rE/OlU0iZE0omYuJOBjZgjKFxY65/ZbBPa3F5P/rT+UZe1HP62225Lrb1f0LHGM0jJ9vZoU1PTua+88krRjYITJkzYl7ync9Ees9czqf8f4WIuA62tyfALTRqaPIpmzmQGk+/HDJY358s3ceLENcFxMmkH4xflNVwenJyq693DgPLrJ5988r1wmgvDZ3/q9EXyfhvfvnLhUnN98vVtaGjYiwnwk9zUjiFMqrswoP0aWh8yYfzf008/fUPHpQrnQDYTWlpaToev7cg1iEt1lrybgc2DzmPQuxA6HwEr6pDFRmS4hDKb4hc9u0ZyEO7nnnvutKJIu5iIQrkdk+l5FB8Crb/T5q7sIipv0qRJ64DrfPjdB1zn087+3BGusWPHrl1fX/9v8jdRTofEfAsenuuoHDI8nzxHcT1I2aug9XJHZeLp4DiCskdDd2PShnLxWGiGEt3XRVyNpD1F+/kZ9/UV4kWd+g/1/w2ZNgSvvmj7bfh6vlChfffdt8/cuXN/Qt6dyLMY/1Ly31Uo//jx41eDl2+QfiDXA8jpB4XyJgzPMDZ9BZyS94bIZE18ycq5hfA+j8id+NeX0gdcQfkoJH0XL158IsH/sW0gnBwJg1+Kn8aYi4rJFn5Hg+tC8g3H53Wvoq4enH/p27fvb6dNm7a4UE5wHg+uc0i/g/Hx0ueff35+obwF4DW0OfXjw7nW4tJDHLOhcRoTl3DNAPdvwf1fH1z8d9SoUX2GDBnyIHzx/ZjijjoOIMf11POGYvUsjiWa6piPQisQk8LQ3JLl24+tnGXl8f1HLkSgS5/SyXF06T6cgI8QcpJWRkA93VOjmN5yvPbOFm/O3KyRjeBKyLtJ3u7lUmL+dL+sTGTmhC8RkDiFD09hI10LD58XJgW7UqLn6aaGTrEtg+UksUWH2gZl4t8E7+cyrAoedwze6zGJ7wIcm6FXSgfMkH91Ot/OaldMZEXbF/x4KIKa9PO65cuX90WJ2hZeJ4AzyKMwdQji0IzQEe3m5ubPUFBuCjLFAuCtI31jvHHC9f/bOxM4u4oq/9/3OltnIwESSSAkgTAEQv4sjkgENC4wiPLHGUVcUT+D4zZ+EJ0RQVTUwWVwYIDI6gKiQIxGwY01hCUJypoEQhKyJwYSskBIpzvpfu/N91e36r77Xr/73n3dr7uDVn369q1b59SpU7+qW3Xuqbr3SZdqQWWgj4ycugPG1yjkv4djCmXp2J9B/pa5c+fWGogrlsWg+R7a5kLqebwwph7yfK2GeQhpY9F1LPQjSTsKI+TDSUZoTPhg4m8Ei0OFnY6kYHGQEd8jAb33pfwTEa5JdVF3CtmzZ88gMD9u4MCBk+hn49LIgncgdTw21r9mYGic/vTTT+urgIkBrI8k62T6nQwl441MZC4j0J6Hkv9ykv8fdZ9AO6j/7iJtO9fqI/tTj1FqF9p6Mrodz+Q7g7b/WTWP2ODBg1t27NhxH/KuU32QJ2NW93Px5uGCoAYvbN68+dOU8RHqMQLs7oR/maEm/EPmAGRPJs8JxLcksDU0+YQTTpgABj9At+Npp3HgIqxUxkaODnQZLaygT6IvTeF8GlhVNSTLFdy2bVsT2E5Cvhkv1eeFfaWgdLCawlmGbmJA5+HoNY3jIDFJZlKQTOq0FEz14JwYqNtE2moS5R/NGFnX2ESfO478lyL89eii8cmMmVyzNhQMIk1eWKVNIX6c+tvQoUNn1BqzRo0alaWuJ0hpV8ck7CSf+3IqZWh+aUjorgFWuZVTqCaHyo6dheD2u/PBE0uCYOokTO0DgmDCGEzbkfRMbmNjkGGYyS+h+Sx8AzKMpyjiNcsymOZ9YXshmP1QuOSo33gcQEvp55eiIEy4dDaXhiQz5yvNWFShEaaouxcjOmlwk1+ZinSbzYxuUTnioyDDKl6aoUjruRg3225uaGnK/ZAZwM1xGU/77120aNHqpFK5QTrI1wZdA3YqY4EyHG8/BsDLyKeJhGp2DtyozehxX2dKmAL9FXS4hRv0OWTEy89y/RHqMYHzRsr5OXLkHXDlyGO3kMFJT8HVgpGJyhs5ZsA4qApzfwaLxKfRKvkE+MHo82H0VFysE5kYT+P8+2r5KtFYcjmC9HPB5XjkvQo2M9F9NvXfxtFEOePB7dNMjG+GvrW5ubnmxIhOZCvIQ6IJfhbXC7lOGhSF7fJKujUijTrgnDe6SJ+q3rha5SELUYXdHJoM4v0nMavyqAvrsGEaad8gfr5LSDi3Kw9l7aFtoswJvFGyJkIurqGMN5JP+C9Gzs0cC2nDXVwXOPenLTXJfwDeN2McHEX6G+C5jevEJUkmyzbk3w7fVPJ+Dt1O5PpSPFUXRgqEkQKOx2PgOwcdRvCgsRjeK/FyrizjK7mEV+NJVO8SYuMvMvT9Q+nvNyJ6urACk6XgcA11Ww5+O7nOcx4Ez1jSzuE4leuTST+Aeg+h3rPSqkXeDvAQ+2rOP+esunYK4NQE7zb0eL4TMZaAHhK2B132wH8358e5rvjUB1338QLGr10xEZWi7fCpr6rPVaJXTMOY0irFDMqZRt9Sn1sAZrdzvQhZbejaRNoY4m8j7Wx4hPsFjFkaS4RF1UA+Q+d8K5FVHGFCWS5kDkT/ueheq55lOZMvmda7HtB7t4ZnN8HXIwkczberZvNQvWp9Jli2LghGDudgcUIG2GEHBcHBrwsPecjUYM18BV/lVexZ9RS+l/LKvhqAefPM2nwwc05HcO8TuWA7U6j2gKni6rwu0NEMEG4KL9n3BckZYWG+WBshQnn4k0BDsKdQtKOrKMNkGMNMQSbfkW1dHDL22n9NbOYpn4H8wilTpnyRpUi5mhsahCc32DUjRozY0traWvFxj5s88/LLL8vAqxjQq2XatGl38YQ3h0FACJrAANGPSeItXEygHO1VmDFkyJDtrhzJJbTjHUiUbUW504sMzt/FW8QdUzlIpvSpTE1OxdM1iIHrZPQfjYwcfU4D0iHo/DHOdRtg5DmZ4412kPsFT75fLVsWnc8Au5IBXk/bf9IkDH+qgE4ajO885JBDblu3bh2jROcgHDhSGTOdc7/mUnL0I81s5zL5341Bclcja6DlTvrD5bTTGzUWAeuVyP8Vhv5fyrcHnHXWWfNWrlw5lzb6Anxacv45S4Y78W5WVYl+/QrG1eX0l9Opy0TK+Rx1mUtd7iGjuafQQ/t+Lub6OPqN+ugPoc+tKriXiSeeeOJQ7vnLqcN0i9VPUeGnLI3N54xboTRwDzxOnT8A7+e59w6jWt/ACHsFPFTv1IH86xnHrsCb2KkMCaEtMiyh5RlLEw1hVxiyeOctowfSe4cNG3Yj41XFhxzJhL6be9c8FLn8jTjbZemr0GMah/SfgT4/B5fHkF9iKIHXXGjPUf8z4H2WQzypA/jPZlyeQ/5E7IYPH97QenbLAGN+XkHtNLjV5RWR7dBC8y9e0RGs+WsuGDggE7y0nR+W3hZ6u2ScHbAffmwc4/txjMMQmzQuE7Tlc8HR/8BGfAoU8h3AJC+ZDIjXetBbjh3U5T6MrlkYpY8vywdte7A86PKqXmRglVfUEMt4SAuNrCgS2lrKK6OqmEycCxrEnkLpjs7ZBSsv88T/DK/poXB5GnCWtiu4qV7meBPxTzB4zMVI+GUt13JXymZi2Y7c7hh3BbvE0mlwY3Bw3pHcrl27trPPo8vlgIUZIJjMtHzU0MBekiMZuM5loMtz1n6aR5hEv8+EIG/EZAa+pXUWeAS47k9+eQXvKDO+jCj2omgDsgbLWI9LVwo67pw1a5bwaDgW6TTYa7hkfN3LJPJG2otH2OAylr+WPvroo2saoaH2yjBpy0vzFtpRXozrOV+atI/HtslzLId+F6M7w+boNbRzqvbl3liF0fUV9L6F8mS8XcKD12MYecwQWgnp/0XKPg1DxUzIeF5mkVwyGYuvrwK6DuAefxf6nQFOqvMf0fnr1ZbWwWbZhAkTvr/ffvsN5N77LPeMlv4/ykPWkmr5KtSxffHixcymDQt6UWCXfTBK/XDUqNIZN7Rv9CQO9bkf07cvBasXK8lnbNoC9j/Fi/4AfW7z/PnztaJgZ7xKOUrTkP3qI4880kjsSguocFXxSb8CX+WkQvBXCNz4lclJqfI+bn05Hzz8ZLt5C1Jv8SlNhpc8QPIEvbA1CBZi3t3LsPyrB4Lgpj/kg/++uS24+JrW4Ibf7gkefLIDnrxZmtOSnQyVpu7VJkndHk3X3SkP106m7F9heM2Y3R7MW5wzn5zQZnszJcEkvvj0pEGwPJTwKI9LsKzu0uQT3QmwskpExuniY48iay292jmtehp0v8WxmptQiHyTwe0YS2voiZtW3oOGBwxG6R3dJQzGut5bw3FMHFNQbgPHtWD+BxljxPenz32iC0o3a/Ak0MurPqhF3bGeMtDpNXjX11PD1LwyQh8F68uUgwn8KJ7kv4zRXNfDcVJpI0eOPBDa+Rp3ONYiP9H4isnIsBdtDcbXatLqal88Wr+iLjMki/MJGFlmGRJP0fEkfZzyh9Av56HL9ZWMeuXrq8Deo9FM5ucJK8KLxL+Zxohas2ZNG2OQXiq43+L8DgyQk+upB3l1szX0nkBkQ+Wlrc/UqVO1P/fTwgLjawNYfL/WCwoY6Tsx0J6p1/iSTrRTFs9tj8wBSXXuLrDrmVbkAasryMB6EeNpwdMdGFBcmH5avD/VhfqhmfY9NbNVbw++g9UbC8H9j7UH18xqC/7nlvCQQXYZ8Zn3twePL8mxpFkIZIzpMIZcd2tXV626xjwEXZ/fkA9+/If24Ee/b2cpNm8M0Ca+71XRICrCpIEwLDSeppT4tYnzz6a5S5OxmAw9ZHAiO9ODPC9NrzPpvfiPOuqV4wcZBK4g3oZxMIkb8QvaKN5oNVpaWhruQm+0jpIHFrY1GytdHi4knql+xbF84sSJejPzBcr7HYfedDoTY3JoPaWSZyMTpdZYtWH+bJaXxtWTPwUvfmIfLAIdtNcPabtHuEeU9EkwP51zt0ZCeXSQ9waMnrHI0nivt2LXc64VutNP5YGVMTlfhRA/j/75Ier2LS4PQR+9OXgZhlq9HlmJ69FAdz+QufwEdNUbvvPACjdCqpCxxuQD5N0G3gdw1p671AF+Yd5QbyAiGyovZWWy9OXjwHE0GCrLTB4o1qbM69jq7X/t1nPr8vf4uVtP4m354OlBGTxgddzeWXh3soXtmRU5jKpcMBgBQimcUogBtrpQiDkExTlpia5/U8YYZC0U/MRz+eDPz4R2xUGvywb/cHBTcNi4bHDoQU3BmFHZ4KDR2WD8mGwwvDlccNc+O41JxiHc47DWLkA4DAT9+c/mg9vntAdz+UmhNgxNGY6mu1lQ3AZ4I5E0sxRoaGEZut9MB1WagsnMuYRHeLrMluToxWQIXDj8nSxDZxN+wLJXIQDx3g+8Edk0ceLEa1etWvVPDG7vQoMPc2POZUC+GbezW9rrlmLCkafPN7DnYDtPW516tE3ToL+RMhu2CbMrSqPDEJZo9NaTlmc6BeqifU+bFi5c+ALE1IMndTwGme9mcttGGX/SYMTkuxPvw82kyzA7dOfOnWcgU5up04Y5yHo3+fW5Br0NOQjdf0Pac+wdWq4n1rSCyvls3z+cfrACedzppUE4UO5uytnY4GWZ0oL2jitz52tZGiP3AtpyJpgcBAbfBp9V9Nku791kX+RAMDRv31LVDjD9UVKVKWsweyAH4gXKYEBolNHm8wz7h/L0ndYVK1akfsiRtwN5FyBiNnXRm4LfIT6e8uURuRr5D3BtyuC8VwQeUPqxh3I8+kqfVs6/rUMxVxctyS+lnm+ingecdNJJI+tYGuuvfVOMZRXve9omS3vsqGPcpAqZodp3x/4n3AWlQW2Ljh30O3YrN64twDHLdohjaHMtgeqtm9sYK+p29pRqW/2KMiaD3SvUxzy9xLmtGnp5YJ3usTitO/FuGWD7Dc6sb2kr7GDuYsdWuiBDyni/FvHj2zFjoerGcCtavVN2hJYadRhjBSFb+Sr8Q1vag/vpts0DM8bwOnxCU3DkxGwwYWxTcCAG2eh9M8HokdlgGMM0X7/gBg4NMtfj02nfGC4tQLWwmj7niY7g2js6jNfL1EetgUJFLMIKJxphUgcM6RyhEabreH5d2xDaVkWi6m2MXrWBknVt4sQkk38RXSwF3vDK5h4i2uuBwT8rY4Dlh69T18MYmA7nJvky8VUoM6cRCglDwrcZUORRERIlgTL1BswCbsAbICwvIfbihfTkOJgx6RrOFe9faE08Pd7OIPZTu3ejpob6BhVPmNNZHtW+mmXIuFWZGPT2QHuMNHk85L36PEdqA+yMM86Yf+edd0rXi8DuMPK+l7Z7F9fz2c/3GG26AMyfZi/RWmh1BeSI/+PoehryGFk6BX3bbT0G5I1Q5nai/o0mYLjMx3DRd/S+BeZTweB8PMYXJO3XqgUDnmHEhB/OhTePfN13FQNtcTp4Hy8jjLhpILUN988ODLk7ySTjInXAUHgEg/0mMpyHvPHKSH0eoM/8GFrDJkLJbUTA0ByMnodaWXqDcH69csFab0tusPn2Q+briKfa/kF5E8Hma4yZZkArL5u2GEJb6OWJZ8tp5dfIUvvphYd3My6MQ2anewyaHlbXYaBdxxvqdb/0U16mu37ppZeyjA9TuZbxtRujVg//pj85nkafKeeTYPc+5FbCrh/0F3ix4gfQ03o0a6pYcQCvmSvOkAmeZRwcx+SNgnFCcnzdC7ngL8+0Y0DF5jnyFg0PLhAoecYokCjJNoaBOUXCAcV8nqGJjfzaSyW2tS/mg5Vs7v/tXJYj8bAdO1nesfCYhJdsv30ywf4jssGY/cPfUdQ4rkMb+ns6DMTD9cLWQvCnRzuCG1ly3P5qgQ+rooegsHXUuYgF6VhCxgiTcpavlA4/OHDDiMPIMXQnL0y1eFrhYoO9zMgK8Tb5KDMywkyhuBMKc62oPjmxtv8UE8u1DMAXY2AcxiD171yvZSBe2SCFTqgiR/eKXh2vawmuirzukKTDdA7b4KWi6At61fzP+j5QKSX5CuPrRPK8n7PugsfsRlfT8EwA2xmA9emMC8F+GhPi61n6eRI+9ZSq4ZJLLpG8mzC05Fn8V3Q7kuvxtN/bOL8NPPUa+S+ROevQQw81XreqAmNE9XnCEZwP51wJC7XZ89Dr8UJI5ms+cE/8L/eG8NXbhJ/gWIA382YZ1PVWDoNAXohUoyNtfCZt+xHymDHJtpGM+lZ16b5yAAAdVklEQVRoaym7LgNMulL2Kk7GK0Fccl+gP/b6hnDpUitwrwySsWLrXWC/at3ecnmTaDt9pkbF7c8xhqPmUquwIYwD//MUqRSg6VtWd0OraYDBo2Xg/tyf79BRSZ7S7NLgLUQbZoDp+1x4wCbZMjdh1GsvY2rvqc1X7+koMiSNaRpL1tCv9YJLw4KEdiswgT+ADfxm2n542F+SxeE5Dl7h21+Lnmf5kX1PI4eXjZlUvWhYcAG53Ptjhtk4RIanaHxIYny5Ujo9+VwueAzvpWSNwgt2BJ6xyXjIjj28Cc9Ylk9fKD0T7Ic+Em0MMiI6Nyro3lD9l7LHS5vtb7uv3cjXPjdjYNn5IzKIKF+6mHvKROIGEQTRkan6hoycqKy9CYt05VUwjOKRTJuIACNDlzG64qEeYZlSlKS/Pnb54PVGVh/+Y2K5ksHpWAb0jzAo/DOD+pNcX066Xpe2tahfQTuw64v4LcihpUoDaXoCWs5R8Q2cUu6eu7Ltq6XFGRydlt1syVoWmMdEkGqy5dMZzXgsTmTZYiRnfVPLebhMR9GTLa75m5jMv4T8fuCuAf4cW1aqEwbdHRgA9zOQnkod3kz7/SMZeXDLHMygdg6y///q1as/Q9rtqQTChB5a3ppNdBEHj1+lgXqoHbfC91wp5e/iSp9n+Db4yusor/GFvB22hPi8emsPxlpO1CcJamaFZx5t20we9U1tDziAQ56MVnvNKX3g3tZHXy9A/2bOL3HoI68fooz5vJn5o3qWNNOX2nVO9NO3rpy3Sp98GIG0TfVIxHM9EONDey41pkvWlrT54d+CQfRn+O0gX5qT+3sY+K0rTU280ofp8rTlM+C9Bn06jYvkVL9YTt9qqEG8YcOGAltP1iL/RI5hLH92WhZM1LrrhJlklbGvmb+ks4OD6rmds+gNC902wGiR37Ov6nyaZngtrbT0th7v1F8Wd+CZSuCm25QaFlW8PxJhjQeAqWh8aMzQUqXwVHwnv6O4YFEueJgXALQnTPvEJk9sCv7xiH7BUYdkjSE2fEg22Acfw9DmMI8zyGS8dCXI8NKLBIvY93b1r/cETyzPGyNRhqIJpg5hRWLRkESCGfcsoeiVgkxaKVZcV8BBgiLDTtmMLCESCjBmC1FTjpidXMtHSms+E+w1XgSMiysYkOX1OIHjs9wYmmB/zVkfxSRafyCvsLsIQ0GTxt4e1mFwfrdRSjK4vglZpzLQSqQ+0riTiW8qeMj9r8k3R9pQMNLgo43674I+Bh1kCKYOdr+XDKbZ2lOCgXgm8U9Qrr7xM4KyriL9EQy+DWmE0gfkWfkJzri70vD/vfGAy6N4FrXc9F94PiaC1efYH7aOJcS6HqQwmjUJO+9GluXM8QlLxhn6xHWUp8MEDPdp5NX1RJuU+sS3tIax5HMFGSbQN9roI5dx/hT3v17ouJhvTy2Fdn9qgb3AiG4t9Mul6KfSNL8ezLFMF2kDe+XGU8/R4kfOJtotVXuRR1logiferUiNIAWrDpbIM0YHfN+nL91aQ15DyRhf8r4tQQd5X/VgOIoC0hqOXdKFdruee+OhFJlrYpdChmHBNOheGDQos5xmXMHYDVC1Za1cHy4/atktMdAtonnUdBF5Ygiuu4geu3TptgOGYi1PnFEy+XC0McgGs1ds2JBMsIX9Yw+yF+t7N7UG77+wJfji/7YGV81sC34ztz14YmkuWPXXfLB1Bz8DxNwkg0mHDKo0dZUi2tv1MsuM9z/eEXxpRlvwJN/30hueZslRdSjRM7zgf7H+5TxUqIRu8ystjkOEhSFYko2LVbzhZRQJy3Q8UTLKFnD9FrK/N/n6/l+GwV9emhkMduuYWOSePxeD4GCuU3l8kqqAB2hYEm1vSqfu9MLGBXB7A4PcUUyUav2pYCoj6bek/YZBaTbl3UFcA7AGQfpJYV9O504PP6+hpLqDvGpMFLci60xk/4JDMpopW0ZZPWFwPcx/b7xMnD8E2zlM4nkM6Q/S1v8iDEgz1nYaPDAI2sj3uG0jLW+/PyGfGz0iMn1qGPzqr51oEVOFiD4HgPH1IUj6qKY4fsrDkQwwGWTmDUH65r/znTF5+PaaoCVeGUzoKZ3kBXxfF5TTd6+OAHPday/V+lmpMvlyNzBo1wxp2wOYs0NqSmswAx9Xpvp5eWydofBBvY3b4GLKxQ1O+RmKtNiVy+90naahOmWqkHAnGr0iwyQp6Dtfm7cVgoXLc8E2DJpqvE5GLSNMfBESNmI6vkvk7KIuEsp0zKExpWXAIXi7tCS6Yn0+mMVnLS7ie2PnXNISfOnK1uDHd+wxHrPlLB9q/9areNHkFatmjMnAUh038jNCv7i7Pfjq9W0YYmEejSdGD6dcXE8p6tRzdFtRcxn9k2fQIqUzR0RyyY7B8pXTTR6XWImHtPAN5MLmJ6/u/7AV29cnoykTiybtOxns9FbWaSj1MQ65+3v0TZm+rnyjy2cCewP3zGl2kmtDvp56telXL9bEDxld+skRtw/jbDbKJvmxYU0XMMJ2MdBeRhuaDJQ9MF1Oz5UWAfC9AN6nOCvLN9mPp2Wd1EFGBXn/QtvLaNOPOX+AyVD9occCX9GfQnnf55ARshJD7iIVJoOS6we5lkH5HvrNWfKm9pgiXRCMXqvQb6H6Mrr+M/fYhLRieJAcTJ7TkHEgMjYRfypt3r8lPr10hQF+L3V6BQxUtXN5ODMPgCnqqcHEGW4p2PuOpYrJlF4plrf0xPxitRz6EekV63LBo4va2SyfHhthb+C3/3RydoUhiK5DhZt/OpUaJ0ouoXMhHpNq4sQMQ2ggabvf0MH68i6fy1iZ48Ovu4OPf2tXcNZFLcFXr20NbsOgenJZLtiEQbkdY7Jtt5Y/i29nyvjSW45rNuaDb/xoN8uOu80G/+LeKylbqpPUsRqFFKuP08tlMMkRY6yeVmBENxlULycoTIjoNtlkc4lxVuJmyb9QeBURia+d22L65MQgpQH6XlvHz6HExzi0hGhr0idqvaYKBcM3o/DJYMjjQaDfaPwSZ03YX4kfTCYXcFzM8TvS5UGZwv6WY4jWHEOYrM1r7MpXKVDmvq6fItdYCZX4EtJ8WycA45IxWlaAsbxH62jvfTjrXjnaYe74qp0xwF6Cfh3to8FbPxh+oT6UWS2PaLBTjBmEUg/67EnUD5z/gOz7cOhNws/gBdoheQoYJuqfi6z+/8FS9imGsPf824LO10sdzvtiOPwgDVYhe+Z8zm9VXsJ9tNeDYfTv7z+Gv5a9r+PI0X8n0c4fx5jVQ3bVgBE7haX2aTJmqzJWIGL49ep4ojXqbofm5szaXXsKf+DrGQfh6RoabiXpLHY1byY+i0GjL97XFYDE7HUy0PCPMUC3tBkKnKA4j7nVZZyEe7jMdEyaskd7oRy/Uu1GKiNT8pTfMIcGmTxd+rkk7eOax/6xh57CyULhY3mL8jjesDz+yHAP2YihpuBgF28A3/Fwh/F8vdpaCAbpbc+QZAwibspIfrlO4guLll7SxdY1ppdV19Jj9RSPsqm4UIhSSsvUteiGwD8TEY+Kcpm5FkmMOPG2tQy8WpG9LfC20AZutKuYHA7iBtWeJXluVN/tXdEVOcZ9P51v0FTKz8bYjFzj3KQyEgRRnwTqahoGPRPvJOmKd0l6Ji41aS8P9JNYes2ycfdRJrZvkuf5apU6+uijf8uE8h4wlifkIvbpnD1v3jwZbxUDg6Am0fM4WjDErrf7wCJedBiLLMlTmvaabY6IKSLoYDBIwkI4sFeowOc4hEW9xl0KDYos1MH0myRdeLOroCf7Yo7ei7G3ZSaer1No449S6lkcsoxSK6AlY9rqm/S995DpQAyD/+CsH8W+fDuhwmZ49VGKKMg7pfsqVWFgp98i1Y9sn8L9qDy3svR4P+eo7TDGnqdf3QL9QHlFqNNn0G21tibA1+dBXl2MyJl4cN5L/3w7x3sxWDPo/Ck+Kv1qOVbqL+qnKH4heH0RjPfhPtjI9a/r3a/X55VvrAIFxqXLMbz+hbY+DBz/i36h79zNAheNE1GfULFaPsRzegx834b/LWB5KcnfES1NIE8TbaFlzoqrKLGxRPdwqv5cq9zEAbxWxnL67lwwY0A24Nfcg6nlBpg232sv1aNsvpdxouW+ugPVLRoOXDjDJC7K8Qgakx56iGiQEC53cnTxi7WT4WHzi06eUFS4yZ9vwZrPXkik9o/dtaAj+OP8DrxlbJMKpSGPb3JgtJmDIdmUYf6FtaZjGB7LXkoXH8Gwq+DQMurEU9QLHvSPjE2b2dCtLFUgKjNGV7TUUCtikck28dHa/Muk3LTmpoyWpvbKwI14FwPbm6jfYSjolsSEXF1B+HADnsLN/Qp7XioaYAyMTXwMdjNPs8/25Yc90XUEer4dPXlVpHKAJwsuKzA+nsP4qDig0E9PJfebmMAkZJEmtsrSiqn8JM0mBiJNiKdSxilMMmOJV9xkTPn94bmaSfKjTCi78ZhNxgi4krRVkgjeE8D0y+jxMeJKWs3xR0XSBOSIjX3mx+0AC9f25Vkz6LuLZaolaTf3lwuodY0e2igsg3QidT4VXbT3p1NAj60kzucomTg6MfZQApPXF2kHbWCfbrGrqyQMnC3U751kuov2GoO8/+R8Gm+o3UD6r/m8wat860s/WF/A4DiEttXy9kfg1wszqnvNgIFyOPmusP3hr8j8PJk64YWRczllaoP/++hfeoFkCdeXkP5KzUJ6gUFftMcoPAesfwcGx3LW3ruj2Vz+PdLv4MeyzZhKn8hznAjPl6G/lbpnqXs7p69heP6mF1Tdq4vgnt3MWPdJMPklGI2mz11FW5/FPf8dMH2c/mFwpA/sw9j8AdLO5zgQXrYAZcdr35iW0NNUkjKOx/gfoCZI4M/wVZFW+tki+lldLyAlyDNvaSTR6kof2ZxZgxfsno72YGK5F0ybzldtyAVL8H5V3Xxfq0TG26LhwYUxLKyXy+V1PBqb7TSsxqBRQquG5Mg4iehFw8PIVFaX38mT/HDAF7OJKrv5KKxoGJlooliUWUWa4GQ4mSSGOikSMpXrpHwqzsiwEZPdyeBcxAJmZ4Qpo0R2okuexUE8Vo452bhJJh4ulSKE3/rM5gZcpfS+CrSbQ7GaCt+DOAHWj6qOXQjOG3BLtbxShWMBr1xrmW5BNd4kGvqlqU9SdtOGECch575EJggMVDJwrmFw196ZTpOSflyZuryFgWs0k/Iy5M2rJs/R5Eli8LuFvO/g6Mdg+DGMm0vlIXE87swg1Q7vMuRvh3ckx7mUcy70TRztlK0vtbs6aePyV+rZcEzZao+v6HBllp8ZTIXDJrx8muB+Vk5vxDXl640tHrmCM+2RJPZRcJ9e7gGJM4NB3f2Dso2IWnn1BW8ms8vBYwx5ZBTVGwq06WKM6H+irJnImYSAqWB8NfKuxsBezXy4k/MRpOmzLXH520hL9JSKkYlNel2rOHnbOM61y1BK6hSgfx3+g9HjeOL/BsPTHDd3YuyjBAzWjdwb78SDczv6nYwaMn5vpN/fyPfC9OsNbdCO4hxpCJ8+dXMeON8VJfZRJK5XI1SgXqaiuifrCTxkP8jbtDKyZ3IcQt6TkfEn5OUx9Bej5/4cB0omabrfZUBdv++++/7nPffcU9P4Uj2VjzHz65KRFKQ35W+B91PwaNtVt0N9SNQobk8+uJZb7nl5flxQ39KnHbX0uGRVBwaYo3TxTAHRbW0ioZerRJrjEd0yC+AoxOk2MSQ7gs3msijZxcVvL0ySSxePK8ASSvPEZFrGqEwjM0Z3copFJZfpCnVlWllGBGmO7CLlOCjdZi0yM5cU8u2b+fHH6564IbMrpk6vRLmp3Icf5Zox7plqBTNY7eIm+hF1W6CbyeaJql4tL/zik4dI302qeoT3dbCHmzDpCSmxKGQrDz9cn8lxo6fSLS6MQdtgYtuvqp6qh9VVRk7FsngSlyfjWFvGHPYJ3REvr0o8b1+A0ECUZ1D6VwzSRE8cvJfCczb1vg9+4Sx9tJl2rHQkjV/SKMigOx3eu6uUG5GQJxmmX5C3KhYWhzbhHgloYAS5Rhf0UF2q6gLdvcCQqIH0lCz0rthulTKKn6C+VbNfMpn9Dt7fkMcYzMqDgZy6LBWEZ+YZvHwnoKOWlvWpgHbiKns8xxQOeXGcLgu5/hblnEG+XxOvGPTJCQgf55iGPOE02/aHRN2gPwefDMFN9Ant9/ksxuF0zokB2dLLjS+JfI0iyIPD+PR2yv0kx+McHcIGPGRIHMlhPp1D+lri3+aYTr3qNr7Ir3pJlsOdy64H9BPuZvxF3cQ2qKcE9TX0032icaMumfyg+0K8o0dT3hc4ViDD3M/InMr1GK4VtF/wMY73g/lnMb46PRRW0lcZSa9177oxVR+ObthYYmarSkp1NW3HnsK5OPAuGTAgOLCdPVMyuJ5fmw8uu7k1uGPubvNl+q7KLsmH5pHyJhL5n4qETjzy7kS5DJ/NGokOyZbH5Y9nicURZvKZ/y6ds4u6iNHMJVaiG5plcHR76RQrqh0yGHKMJ6JbQgnd8pWkIbgcC5UVptEhcZ0/fe0gPdH3VZC6VvPOSxAJSsUfKHRTpbnJ4+UkiC1JTiu3JBMX8XK6OkjGZZTLr3RdTde4rGp8leQqLY51rfqorAJLL+PpX5OJt2OEyusow2glRsGLElhniJefJmtX6phGbhzHNPxpsDJ4IUw6pwkOi7R1LNe5lk5JOhg98VwdzKQ0Aab+PJwU1LbEW3mQes7+hqGrT5Iclx7Xq6t1qZXPlVGLz+nUqLPKDdhErl+BmIBRY9oMrLJ84+oFlvZX4l02y2ldLLAn6lVvv6qleiN0lIwCfW4yY8cBHE3qc6T1B8sljCXriRueWsrE6K6esaSq0Yb1HSna8LBzd+EXCP6QjIJmtl/e8dCe4Hs/aWUZMt99D1iZtuWGh8imUq5mnF3URWi0opSK9EiKyWy441licVdYIo/lrWWESU5kQsbkl8g1PFY3yxOvSiijFIBkeghBORbZpkH87PbuZ9Dl7KeuH7gk5PL/PQINQUC91vbcSF5XJ/9IgI/0OQKV2lVK+bbt3DSVsGrYhN65uL/ZlL8JHOu1/FK1JhvyeWU9eFjG1y5WYB9/NhcsXa39X6my18UUet/Joi5s/uHidFF7NtexNONxdImcXdRFJNNKMUTRo3JsPOTRRZhQkQdSJFMSxaTA2fDbeJTmGBxfyBrJcPkiAaLHeCO6SQtLSKabUuUOjuRnsv2DfK5tEyv113vjK8TH/28oAuqUmpTjR0ML8ML6BIFK7eqNr8pNUQkrpflQHwJ/Ezj2iAG23+DMBvbHXsKGj0Ub+HrM83z/q859d3U1RWRDRN04NJ8i44P0ch5xlNAp0WR3MpTHpJiI0cfwO7pSiqSwACVVokdppWVaEUaO4grhcrQi5tL8M1F3zTmMRpHkMg1jrExJc9lCIVY+F9r3lWvfzT7J2xZeN2iGIfh/HgGPgEfAI+AR8Aj0CAI9YoBJ02HNmTk4vG68f37bC8vW8HuM1X56qBFVixsWMi6sJVTbILKWSPxk48ZYMXH+VaJL7yKpjjJthSXT5bfyjUindDzNEIr5QpIy25hOYbQoM8pT3QjTC1yFfId2b96a67fja7YUf/IIeAQ8Ah4Bj4BHoIcQ6DEDzOr7k8XP507buqNjdr8B+h5f+faPBtdK9khcZNw4cemOJ8ZY4nWqSFdmR7BlxPLHSBBDgrOhTLEuq0iGXN0gMqUZAS6jkeKyRhdRGa5MkzEkl+oUEiJ+y2dUMcYXL3UUCj8JmgZ96dlrRu+0EvzJI+AR8Ah4BDwCHoEeQqCHLaJQ67FvfenwzIB+l2b6DXlvoUNvhpqpv4eqhFhqVVIxc8G28nhinMeml29It9kiPcP8xYw2W7GwIom0kGr+O8YSusQm6OT4xVEiwGQJ69aJJ2IupVcqE1YxZbL9sLtYHg6CG/pl27/6xA3Dt4jkg0fAI+AR8Ah4BDwCPYtAT3vAjPYbHxjFhx5zFxdyLb/K9h/OzN/Us7UqdRyVep2c7RfnsWmRJ0zaObrjV5KJO0LMjHQ8IkXxMGL+R2nleeQJc8SyMm1yVKZ0UiDdkOLZXNzKKqFzERVhCUrKZAeGggr563NB7uve+Arh9f89Ah4Bj4BHwCPQGwjE/Cg9X9yYt20f39S/8FkMgPMyTc0DCzl+KNH4YnqubFNBV0t7UZ7myKHrCIXirjKIJfxSOJ7g6KqCSQ/rEomwkXgW430K2aI85hMULn8FmSVl2rJKZKp4l98WkETPDhgcFNpbN8J/Rf+m5pv42Kr3fLn28GePgEfAI+AR8Aj0AgLRlN0LZZkiJr1z6/C2fHA2ltf52f77HpHv4Efuw4/a9pgKRcOEIqxVUmKccBEBYSMVjTBpGNHjF5FYJUYhKtfkMSZWlF9MpXST0inNZg1lcmGlRNdhLv5bvXQOo1HEGYx4vfrxpYn+QW5P68N8KvHKIa9u/eOCWeNaQ2H+v0fAI+AR8Ah4BDwCvYWAm7Z7q7ywnLMKTWN3bH1rJmj6MNbX+zJNQ4eyPAlNDrGeCZGxI/Gm1mUGkUXCkqwS8DiEKtFJiwyiGJ+LGiGGx4kLKZFMJTt6lKlGmSaLyxTmt2Kc5VWUaYXrLcemAQMxvHZtwrC8JZ8r3LrkZ0OeUj4fPAIeAY+AR8Aj4BHofQSiab/3i+YH4U7ffED/XNO7M5nsBzNB9m0B+5IKeX4GrKc8Yra25lT8VzSyBALpMZJJiAwmQyijO/4oo6VbWTrFSMRDIZHMON3KV4bqdImJK2NKKdUbcpYPq2b6DQjy7a0t/Fj3vWA8qyO783fLfjKq6o/ihtL8f4+AR8Aj4BHwCHgEegqBaMrvqQLSyB37zu3HZguFd/AR0FP5SPZJmX7DBwX5PWwe58ckG/PbokU1qHFJpVMZRJ0NHiPDCYpkRpFSY0ilF0kSZvRxNlR4EdPLkLtmhGX1gkMThlcT3/Zqb9nM77zPy2ey9zYF7fc8c/OIlaYs/88j4BHwCHgEPAIegT5FILQE+lSFYuEHnrL9mCCbn847eq/HYDkGyhGZpiFYFHynKp9jgVLfq2rAL1xUMIakRUWDKIZQudfJ2klRBcL8ReEldCvHnqLCKpZplAn/VaRHQhDDpyTwIOLu4szPDeTbW1rR82l+TmhpNsg9ks/2n7P0puY1kZI+4hHwCHgEPAIeAY9AnyMQm8r7XJdIgQnTt49oH9BxUibT77hCkJ+CmTEO4jiUfV3QNAT3DjFjiHVvz1jRuEFe+BcZRlImokOjQKXYNJMQyyN6GIp5Qh7z37JHZYjVEpLopopic3ycQw3CvMboIiXf0bITWXi6Mhs4r4dncb9cft7u/Yc9tuLqDOu5PngEPAIeAY+AR8AjsLchYKb3vU2puD6jpheGDhywY0qmKT8lny8cypLaAbzONzyTzw/njHesGx4xah8BIAOnkA0NntjX0aKoZTSnyDpCUzmf4gor7oTqjEUU5ikyyWFlQmSthTJMTWB25HgkxiodOxC7LZPNtAb5wirOq/OZ4NmxG4Y8O3duhp/g9MEj4BHwCHgEPAIegb0ZAWcq7M06VtRtAhv49zQNGxDw89EVGbqT2FyauewSYhe/3NBZELLKEiW6LMlpo+RCjgXGfrndz9w2dJNL92ePgEfAI+AR8Ah4BDwCHgGPgEfAI+AR8Ah4BDwCHgGPgEfAI+AR8Ah4BDwCHgGPgEfAI+AR8Ah4BDwCHgGPgEfAI+AR8Ah4BDwCHgGPgEfAI+AR8Ah4BDwCHgGPgEfAI+AR8Ah4BDwCHgGPgEfAI+AR8Ah4BDwCHgGPgEfAI+AR8Ah4BDwCHgGPgEfAI+AR8Ah4BDwCHgGPgEfAI+AR8Ah4BDwCHgGPgEfAI+AR8Ah4BDwCHgGPgEfAI+AR8Ah4BDwCHgGPgEfAI+AR8Ah4BDwCHgGPgEfAI+AR8Ah4BDwCHgGPgEfAI+AR8Ah4BDwCHgGPgEfAI+AR8Ah4BDwCHgGPgEfAI+AR8Ah4BDwCHgGPgEfAI+ARqInA/wF4UetW2kmDzAAAAABJRU5ErkJggg==;fontSize=25;strokeWidth=3;" parent="1" vertex="1">
          <mxGeometry x="1083.1299999999999" y="-415" width="194.86" height="50" as="geometry" />
        </mxCell>
        <mxCell id="WRViUmnpg-N0fgN5oUnf-6" value="&lt;font style=&quot;font-size: 20px;&quot;&gt;&lt;b&gt;Exchange Online&lt;/b&gt;&lt;/font&gt;" style="sketch=0;pointerEvents=1;shadow=0;dashed=0;html=1;strokeColor=none;fillColor=#505050;labelPosition=center;verticalLabelPosition=bottom;outlineConnect=0;verticalAlign=top;align=center;shape=mxgraph.office.clouds.cloud_exchange_online;" parent="1" vertex="1">
          <mxGeometry x="1062.83" y="371" width="147.17" height="90" as="geometry" />
        </mxCell>
        <mxCell id="V7OJoDuZXHhJWIfkgba_-27" value="" style="rounded=1;whiteSpace=wrap;html=1;fontSize=19;fillColor=#dae8fc;strokeColor=#6c8ebf;" vertex="1" parent="1">
          <mxGeometry x="1510" y="610" width="290" height="90" as="geometry" />
        </mxCell>
        <mxCell id="V7OJoDuZXHhJWIfkgba_-29" style="edgeStyle=orthogonalEdgeStyle;rounded=0;orthogonalLoop=1;jettySize=auto;html=1;labelBorderColor=default;strokeColor=#38571a;strokeWidth=4;fontSize=18;" edge="1" parent="1" source="V7OJoDuZXHhJWIfkgba_-28">
          <mxGeometry relative="1" as="geometry">
            <mxPoint x="1665" y="710" as="targetPoint" />
          </mxGeometry>
        </mxCell>
        <mxCell id="V7OJoDuZXHhJWIfkgba_-28" value="&lt;font style=&quot;font-size: 18px;&quot;&gt;第三方应用系统&lt;/font&gt;" style="aspect=fixed;perimeter=ellipsePerimeter;html=1;align=center;shadow=0;dashed=0;spacingTop=3;image;image=img/lib/active_directory/server_farm.svg;" vertex="1" parent="1">
          <mxGeometry x="1621.5" y="780" width="87" height="87" as="geometry" />
        </mxCell>
        <mxCell id="V7OJoDuZXHhJWIfkgba_-31" value="&lt;b&gt;Exchange MAPI&lt;/b&gt;" style="text;html=1;strokeColor=none;fillColor=none;align=center;verticalAlign=middle;whiteSpace=wrap;rounded=0;strokeWidth=8;fontSize=20;" vertex="1" parent="1">
          <mxGeometry x="1320" y="640" width="160" height="30" as="geometry" />
        </mxCell>
        <mxCell id="V7OJoDuZXHhJWIfkgba_-32" value="&lt;b&gt;Exchange API&lt;/b&gt;" style="text;html=1;strokeColor=none;fillColor=none;align=center;verticalAlign=middle;whiteSpace=wrap;rounded=0;strokeWidth=8;fontSize=20;" vertex="1" parent="1">
          <mxGeometry x="1575" y="640" width="160" height="30" as="geometry" />
        </mxCell>
      </root>
    </mxGraphModel>
  </diagram>
</mxfile>
